<svg xmlns="http://www.w3.org/2000/svg" xmlns:xlink="http://www.w3.org/1999/xlink" version="1.1" data-diagram-type="SEQUENCE" style="width:837px;height:864px;background:#F5F5F5;" width="837px" height="864px" viewBox="0 0 837 864" zoomAndPan="magnify" preserveAspectRatio="none" contentStyleType="text/css"><?plantuml 1.2026.7beta3?><defs><linearGradient x1="50%" y1="0%" x2="50%" y2="100%" id="g17ploxnuxjtom0"><stop stop-color="#E0E5F0" offset="0%"/><stop stop-color="#D1D9E6" offset="100%"/></linearGradient></defs><g><rect x="0" y="0" width="837" height="864" fill="#F5F5F5" style="stroke:none;stroke-width:1;"/><g class="title" data-source-line="1"><text x="146.6279" y="27.9951" fill="#000000" font-size="14" lengthAdjust="spacing" textLength="536.7441" font-weight="700" font-family="'Arial'">Diagnosen, Prozeduren sowie Allergien und Intoleranzen stornieren</text></g><g><title>GDA 1</title><rect x="101.2817" y="128.5938" width="10" height="643.2188" fill="#156082" fill-opacity="0.50196" style="stroke:#181818;stroke-width:1;"/></g><g><title>e-Diagnose Fachanwendung</title><rect x="538.7925" y="468.2031" width="10" height="303.6094" fill="#E97132" fill-opacity="0.50196" style="stroke:#181818;stroke-width:1;"/></g><rect x="61" y="525.3359" width="760" height="239.4766" fill="none" style="stroke:#111827;stroke-width:2;" rx="5" ry="5"/><rect x="71" y="550.6328" width="740" height="207.1797" fill="#50E6FF" fill-opacity="0.14510" style="stroke:#111827;stroke-width:2;" rx="5" ry="5"/><path d="M71,710.3828 L811,710.3828 L811,752.8125 A5,5 0 0 1 806,757.8125 L76,757.8125 A5,5 0 0 1 71,752.8125 L71,710.3828" style="stroke:none;stroke-width:1;" fill="#FF8C00" fill-opacity="0.20784"/><g class="participant-lifeline" data-qualified-name="GDA_1" data-entity-uid="part1" id="part1-lifeline" data-source-line="49"><g><title>GDA 1</title><rect x="102.2817" y="118.5938" width="8" height="663.2188" fill="#000000" fill-opacity="0.00000"/><line x1="106" y1="118.5938" x2="106" y2="781.8125" style="stroke:#181818;stroke-width:0.5;stroke-dasharray:5,5;"/></g></g><g class="participant-lifeline" data-qualified-name="eDiag_FA" data-entity-uid="part2" id="part2-lifeline" data-source-line="50"><g><title>e-Diagnose Fachanwendung</title><rect x="539.7925" y="118.5938" width="8" height="663.2188" fill="#000000" fill-opacity="0.00000"/><line x1="543.439" y1="118.5938" x2="543.439" y2="781.8125" style="stroke:#181818;stroke-width:0.5;stroke-dasharray:5,5;"/></g></g><g class="participant participant-head" data-qualified-name="GDA_1" data-entity-uid="part1" id="part1-head" data-source-line="49"><text x="81" y="115.292" fill="#000000" font-size="14" lengthAdjust="spacing" textLength="44.5635" font-family="'Arial'">GDA 1</text><ellipse cx="106.2817" cy="50.7969" rx="8" ry="8" fill="#156082" fill-opacity="0.50196" style="stroke:#181818;stroke-width:0.5;"/><path d="M106.2817,58.7969 L106.2817,85.7969 M93.2817,66.7969 L119.2817,66.7969 M106.2817,85.7969 L93.2817,100.7969 M106.2817,85.7969 L119.2817,100.7969" style="stroke:#181818;stroke-width:0.5;" fill="none"/></g><g class="participant participant-tail" data-qualified-name="GDA_1" data-entity-uid="part1" id="part1-tail" data-source-line="49"><text x="81" y="793.8076" fill="#000000" font-size="14" lengthAdjust="spacing" textLength="44.5635" font-family="'Arial'">GDA 1</text><ellipse cx="106.2817" cy="805.6094" rx="8" ry="8" fill="#156082" fill-opacity="0.50196" style="stroke:#181818;stroke-width:0.5;"/><path d="M106.2817,813.6094 L106.2817,840.6094 M93.2817,821.6094 L119.2817,821.6094 M106.2817,840.6094 L93.2817,855.6094 M106.2817,840.6094 L119.2817,855.6094" style="stroke:#181818;stroke-width:0.5;" fill="none"/></g><g class="participant participant-head" data-qualified-name="eDiag_FA" data-entity-uid="part2" id="part2-head" data-source-line="50"><rect x="437.439" y="87.2969" width="212.707" height="30.2969" fill="#E97132" fill-opacity="0.50196" style="stroke:#555555;stroke-width:0.5;" rx="5" ry="5"/><text x="444.439" y="107.292" fill="#000000" font-size="14" lengthAdjust="spacing" textLength="198.707" font-family="'Arial'">e-Diagnose Fachanwendung</text></g><g class="participant participant-tail" data-qualified-name="eDiag_FA" data-entity-uid="part2" id="part2-tail" data-source-line="50"><rect x="437.439" y="780.8125" width="212.707" height="30.2969" fill="#E97132" fill-opacity="0.50196" style="stroke:#555555;stroke-width:0.5;" rx="5" ry="5"/><text x="444.439" y="800.8076" fill="#000000" font-size="14" lengthAdjust="spacing" textLength="198.707" font-family="'Arial'">e-Diagnose Fachanwendung</text></g><g><title>GDA 1</title><rect x="101.2817" y="128.5938" width="10" height="643.2188" fill="#156082" fill-opacity="0.50196" style="stroke:#181818;stroke-width:1;"/></g><g><title>e-Diagnose Fachanwendung</title><rect x="538.7925" y="468.2031" width="10" height="303.6094" fill="#E97132" fill-opacity="0.50196" style="stroke:#181818;stroke-width:1;"/></g><rect x="0" y="149.7422" width="831" height="3" fill="#EEEEEE" style="stroke:#EEEEEE;stroke-width:1;" rx="5" ry="5"/><line x1="0" y1="149.7422" x2="831" y2="149.7422" style="stroke:#000000;stroke-width:1;"/><line x1="0" y1="152.7422" x2="831" y2="152.7422" style="stroke:#000000;stroke-width:1;"/><rect x="305.6362" y="138.5938" width="219.7275" height="24.2969" fill="#EEEEEE" style="stroke:#000000;stroke-width:2;" rx="5" ry="5"/><text x="311.6362" y="155.5889" fill="#000000" font-size="14" lengthAdjust="spacing" textLength="200.8535" font-weight="700" font-family="'Arial'">Einzelressourcen abrufen</text><g class="message" data-entity-1="part1" data-entity-2="part2" id="msg1" data-source-line="57"><polygon points="531.7925,190.0234,541.7925,194.0234,531.7925,198.0234,535.7925,194.0234" fill="#111827" style="stroke:#111827;stroke-width:1;stroke-linejoin:miter;stroke-miterlimit:10;"/><line x1="111.2817" y1="194.0234" x2="537.7925" y2="194.0234" style="stroke:#111827;stroke-width:1;"/><text x="118.2817" y="188.9575" fill="#000000" font-size="13" lengthAdjust="spacing" textLength="9.0454" font-weight="700" font-family="'Arial'">1</text><text x="131.3271" y="188.9575" fill="#000000" font-size="13" lengthAdjust="spacing" textLength="106.0122" font-family="'Arial'">Ressource lesen</text></g><g class="message" data-entity-1="part2" data-entity-2="part1" id="msg2" data-source-line="59"><polygon points="122.2817,219.1563,112.2817,223.1563,122.2817,227.1563,118.2817,223.1563" fill="#111827" style="stroke:#111827;stroke-width:1;stroke-linejoin:miter;stroke-miterlimit:10;"/><line x1="116.2817" y1="223.1563" x2="542.7925" y2="223.1563" style="stroke:#111827;stroke-width:1;stroke-dasharray:2,2;"/><text x="128.2817" y="218.0903" fill="#000000" font-size="13" lengthAdjust="spacing" textLength="9.0454" font-weight="700" font-family="'Arial'">2</text><text x="141.3271" y="218.0903" fill="#000000" font-size="13" lengthAdjust="spacing" textLength="272.2764" font-family="'Arial'">Condition / Procedure / AllergyIntolerance</text></g><rect x="0" y="252.3047" width="831" height="3" fill="#EEEEEE" style="stroke:#EEEEEE;stroke-width:1;" rx="5" ry="5"/><line x1="0" y1="252.3047" x2="831" y2="252.3047" style="stroke:#000000;stroke-width:1;"/><line x1="0" y1="255.3047" x2="831" y2="255.3047" style="stroke:#000000;stroke-width:1;"/><rect x="307.6426" y="241.1563" width="215.7148" height="24.2969" fill="#EEEEEE" style="stroke:#000000;stroke-width:2;" rx="5" ry="5"/><text x="313.6426" y="258.1514" fill="#000000" font-size="14" lengthAdjust="spacing" textLength="196.8408" font-weight="700" font-family="'Arial'">Stornierung durchführen</text><g class="message" data-entity-1="part1" data-entity-2="part1" id="msg3" data-source-line="63"><line x1="111.2817" y1="296.5859" x2="153.2817" y2="296.5859" style="stroke:#111827;stroke-width:1;"/><line x1="153.2817" y1="296.5859" x2="153.2817" y2="309.5859" style="stroke:#111827;stroke-width:1;"/><line x1="112.2817" y1="309.5859" x2="153.2817" y2="309.5859" style="stroke:#111827;stroke-width:1;"/><polygon points="122.2817,305.5859,112.2817,309.5859,122.2817,313.5859,118.2817,309.5859" fill="#111827" style="stroke:#111827;stroke-width:1;stroke-linejoin:miter;stroke-miterlimit:10;"/><text x="118.2817" y="291.52" fill="#000000" font-size="13" lengthAdjust="spacing" textLength="9.0454" font-weight="700" font-family="'Arial'">3</text><text x="131.3271" y="291.52" fill="#000000" font-size="13" lengthAdjust="spacing" textLength="137.9917" font-family="'Arial'">Ressource stornieren</text></g><path d="M5,327.5859 L5,392.5859 A5,5 0 0 0 10,397.5859 L204,397.5859 A5,5 0 0 0 209,392.5859 L209,332.5859 L199,322.5859 L10,322.5859 A5,5 0 0 0 5,327.5859" style="stroke:#8B95A5;stroke-width:1;" fill="url(#g17ploxnuxjtom0)"/><path d="M199,322.5859 L199,330.0859 A2.5,2.5 0 0 0 201.5,332.5859 L209,332.5859 L199,322.5859" style="stroke:#8B95A5;stroke-width:1;" fill="url(#g17ploxnuxjtom0)"/><text x="11" y="340.5811" fill="#111827" font-size="14" lengthAdjust="spacing" textLength="102.2656" font-family="'Arial'">Status auf den</text><text x="11" y="356.8779" fill="#111827" font-size="14" lengthAdjust="spacing" textLength="163.5361" font-family="'Arial'">ressourcenspezifischen</text><text x="11" y="373.1748" fill="#111827" font-size="14" lengthAdjust="spacing" textLength="183.4561" font-family="'Arial'">Stornierungsstatus setzen</text><text x="11" y="389.4717" fill="#111827" font-size="14" lengthAdjust="spacing" textLength="123.0811" font-family="'Arial'">(entered-in-error)</text><rect x="0" y="423.9219" width="831" height="3" fill="#EEEEEE" style="stroke:#EEEEEE;stroke-width:1;" rx="5" ry="5"/><line x1="0" y1="423.9219" x2="831" y2="423.9219" style="stroke:#000000;stroke-width:1;"/><line x1="0" y1="426.9219" x2="831" y2="426.9219" style="stroke:#000000;stroke-width:1;"/><rect x="358.3242" y="412.7734" width="114.3516" height="24.2969" fill="#EEEEEE" style="stroke:#000000;stroke-width:2;" rx="5" ry="5"/><text x="364.3242" y="429.7686" fill="#000000" font-size="14" lengthAdjust="spacing" textLength="95.4775" font-weight="700" font-family="'Arial'">Persistieren</text><g class="message" data-entity-1="part1" data-entity-2="part2" id="msg4" data-source-line="74"><polygon points="526.7925,464.2031,536.7925,468.2031,526.7925,472.2031,530.7925,468.2031" fill="#111827" style="stroke:#111827;stroke-width:1;stroke-linejoin:miter;stroke-miterlimit:10;"/><line x1="111.2817" y1="468.2031" x2="532.7925" y2="468.2031" style="stroke:#111827;stroke-width:1;"/><text x="118.2817" y="463.1372" fill="#000000" font-size="13" lengthAdjust="spacing" textLength="9.0454" font-weight="700" font-family="'Arial'">4</text><text x="131.3271" y="463.1372" fill="#000000" font-size="13" lengthAdjust="spacing" textLength="395.4653" font-family="'Arial'">POST /[Condition|Procedure|AllergyIntolerance]/{id}/$storno</text></g><g class="message" data-entity-1="part2" data-entity-2="part2" id="msg5" data-source-line="78"><line x1="548.7925" y1="497.3359" x2="590.7925" y2="497.3359" style="stroke:#111827;stroke-width:1;"/><line x1="590.7925" y1="497.3359" x2="590.7925" y2="510.3359" style="stroke:#111827;stroke-width:1;"/><line x1="549.7925" y1="510.3359" x2="590.7925" y2="510.3359" style="stroke:#111827;stroke-width:1;"/><polygon points="559.7925,506.3359,549.7925,510.3359,559.7925,514.3359,555.7925,510.3359" fill="#111827" style="stroke:#111827;stroke-width:1;stroke-linejoin:miter;stroke-miterlimit:10;"/><text x="555.7925" y="492.27" fill="#000000" font-size="13" lengthAdjust="spacing" textLength="9.0454" font-weight="700" font-family="'Arial'">5</text><text x="568.8379" y="492.27" fill="#000000" font-size="13" lengthAdjust="spacing" textLength="180.4512" font-family="'Arial'">Validierung der Stornierung</text></g><path d="M66,525.3359 L299.7646,525.3359 L299.7646,533.6328 L289.7646,543.6328 L61,543.6328 L61,530.3359 A5,5 0 0 1 66,525.3359" style="stroke:#111827;stroke-width:1.5;" fill="#EEF2FF"/><rect x="61" y="525.3359" width="760" height="239.4766" fill="none" style="stroke:#111827;stroke-width:2;" rx="5" ry="5"/><text x="76" y="539.3311" fill="#000000" font-size="14" lengthAdjust="spacing" textLength="193.7646" font-weight="700" font-family="'Arial'">Prüfung der Stornierung</text><path d="M76,550.6328 L136.9385,550.6328 L136.9385,558.9297 L126.9385,568.9297 L71,568.9297 L71,555.6328 A5,5 0 0 1 76,550.6328" style="stroke:#111827;stroke-width:1.5;" fill="#EEF2FF"/><rect x="71" y="550.6328" width="740" height="207.1797" fill="none" style="stroke:#111827;stroke-width:2;" rx="5" ry="5"/><text x="86" y="564.6279" fill="#000000" font-size="14" lengthAdjust="spacing" textLength="20.9385" font-weight="700" font-family="'Arial'">alt</text><text x="151.9385" y="565.6279" fill="#000000" font-size="14" lengthAdjust="spacing" textLength="195.1182" font-weight="700" font-family="'Arial'">[Validierung erfolgreich]</text><g class="message" data-entity-1="part2" data-entity-2="part2" id="msg6" data-source-line="84"><line x1="548.7925" y1="591.3594" x2="590.7925" y2="591.3594" style="stroke:#111827;stroke-width:1;"/><line x1="590.7925" y1="591.3594" x2="590.7925" y2="604.3594" style="stroke:#111827;stroke-width:1;"/><line x1="549.7925" y1="604.3594" x2="590.7925" y2="604.3594" style="stroke:#111827;stroke-width:1;"/><polygon points="559.7925,600.3594,549.7925,604.3594,559.7925,608.3594,555.7925,604.3594" fill="#111827" style="stroke:#111827;stroke-width:1;stroke-linejoin:miter;stroke-miterlimit:10;"/><text x="555.7925" y="586.2935" fill="#000000" font-size="13" lengthAdjust="spacing" textLength="9.0454" font-weight="700" font-family="'Arial'">6</text><text x="568.8379" y="586.2935" fill="#000000" font-size="13" lengthAdjust="spacing" textLength="220.1621" font-family="'Arial'">Ressource als storniert markieren</text></g><path d="M398,622.3594 L398,670.3594 A5,5 0 0 0 403,675.3594 L683,675.3594 A5,5 0 0 0 688,670.3594 L688,627.3594 L678,617.3594 L403,617.3594 A5,5 0 0 0 398,622.3594" style="stroke:#8B95A5;stroke-width:1;" fill="url(#g17ploxnuxjtom0)"/><path d="M678,617.3594 L678,624.8594 A2.5,2.5 0 0 0 680.5,627.3594 L688,627.3594 L678,617.3594" style="stroke:#8B95A5;stroke-width:1;" fill="url(#g17ploxnuxjtom0)"/><text x="404" y="635.3545" fill="#111827" font-size="14" lengthAdjust="spacing" textLength="220.9785" font-family="'Arial'">Ressource erfolgreich storniert.</text><text x="404" y="651.6514" fill="#111827" font-size="14" lengthAdjust="spacing" textLength="205.1533" font-family="'Arial'">Sie bleibt historisch erhalten,</text><text x="404" y="667.9482" fill="#111827" font-size="14" lengthAdjust="spacing" textLength="269.1514" font-family="'Arial'">wird aber nicht mehr aktiv verwendet.</text><g class="message" data-entity-1="part2" data-entity-2="part1" id="msg7" data-source-line="92"><polygon points="122.2817,698.3828,112.2817,702.3828,122.2817,706.3828,118.2817,702.3828" fill="#111827" style="stroke:#111827;stroke-width:1;stroke-linejoin:miter;stroke-miterlimit:10;"/><line x1="116.2817" y1="702.3828" x2="537.7925" y2="702.3828" style="stroke:#111827;stroke-width:1;stroke-dasharray:2,2;"/><text x="128.2817" y="697.3169" fill="#000000" font-size="13" lengthAdjust="spacing" textLength="9.0454" font-weight="700" font-family="'Arial'">7</text><text x="141.3271" y="697.3169" fill="#000000" font-size="13" lengthAdjust="spacing" textLength="47.7026" font-family="'Arial'">200 OK</text></g><line x1="71" y1="711.3828" x2="811" y2="711.3828" style="stroke:#111827;stroke-width:1;stroke-dasharray:2,2;"/><text x="76" y="724.3779" fill="#000000" font-size="14" lengthAdjust="spacing" textLength="228.9219" font-weight="700" font-family="'Arial'">[Validierung fehlgeschlagen]</text><g class="message" data-entity-1="part2" data-entity-2="part1" id="msg8" data-source-line="96"><polygon points="122.2817,745.8125,112.2817,749.8125,122.2817,753.8125,118.2817,749.8125" fill="#111827" style="stroke:#111827;stroke-width:1;stroke-linejoin:miter;stroke-miterlimit:10;"/><line x1="116.2817" y1="749.8125" x2="537.7925" y2="749.8125" style="stroke:#111827;stroke-width:1;stroke-dasharray:2,2;"/><text x="128.2817" y="744.7466" fill="#000000" font-size="13" lengthAdjust="spacing" textLength="9.0454" font-weight="700" font-family="'Arial'">8</text><text x="141.3271" y="744.7466" fill="#000000" font-size="13" lengthAdjust="spacing" textLength="124.0269" font-family="'Arial'">OperationOutcome</text></g><?plantuml-src TLN1Rjiu4BthAsQTFMo1kf6Ssh4Bf82JsDcWHMtOsRqi5W4jZIp2CkabgMQRjd_MMt-iGygMACjXW5ZYFCwyUJCS6MvoX5lEra9g5AzXhkGp9eL20Le-SOHndgDQStelH0BtmaXwP-BP0enKWYDXWq1lkDWnnRQmaYf1TIDpgU0iTCktidYpLf9yxH5ft_vv29snX2ABDQGir-XPziUKG0MHxpJ1b1MvcKfXFh4jGcUiECixfn5B_emGlJrjV8dsdrzsg78kDXvWCZa5-4iaxW5RzA_b_tEM93QpNjZSl_OrwxlbIogaGVWQ05mVguSXzjEmUvP4oGW75k5x6gv6VTQlTXyo7cy4QWqHxIqyDKDwFt2pNZmfeYWQzYvfRtbKb-y-Gut_5IZYakMSASDZlcF2d4gi2MZrWrjDKBioBVEXgWs39pV0M2dvT9oKsspguhPEHQmCPQmBsheZvhj6ZfNdqjIg5wOzbvrtiWxViwB-Hkres-Tczd6sUBox7Jz6GEiiwW_2OMyOdW3q760q68INjot0VFnmF_dqO3sC1jUzjot0xVtuxd4w9i1aT1bTs137B6OVe5nd_N0oc4vx_IF0PB6OBHnWEXtUXE45zI-BQJv0cG3JqA4dY3f-Ni6khXMWdKAMXyLYzp2JOChYZ8ad54aXrfqcPmfI62cAxGgLZSS_CxefPKW_Jd1r1HDEGojNfBCiL4pZYwrKaTBlrLKGb4UwxsiMxs1nW4AEsiwuojObO7dY7Tn8aN33fO1pEpnZDppfkPoRNwg16QDZiTpFJCe521bdwSyVcJfcSN1UK_1dhHi7yZFknGsMXfb20ojI6cKYg5FKEtpcATTnHjjUPAtB4neDpV7W3nI6F2TTBhf8JQvU1QIscpgEynoLvjguw2-gDPyj7-3ydqgERvKOtzfI_7l-bIVVptztMScWBbtbyAZCjVIDe7-pd2S7DKaFBySWi1TlHpNv-ICzQRVjod9JjxZl3LKgyxL27cSbqguNMDHLei5OLSh0bgdDlcG73tNf3kShK-t5YrrxUrC1b_HLNkN8LmOoRkssm7GeesJe4rxXdhXAgCafbY1FH0Sp1Mn3IWCHi1SAFQzrnTlPUXtP2qEOVIX1I9-1nltt1KmnozT8p7AszXKuwNL67qzcksPMc5XkzoI8KX2uVmcsEiJVSsv-0G00?></g></svg>