<svg xmlns="http://www.w3.org/2000/svg" xmlns:xlink="http://www.w3.org/1999/xlink" version="1.1" data-diagram-type="SEQUENCE" style="width:722px;height:776px;background:#F5F5F5;" width="722px" height="776px" viewBox="0 0 722 776" zoomAndPan="magnify" preserveAspectRatio="none" contentStyleType="text/css"><?plantuml 1.2026.7beta6?><defs><linearGradient x1="50%" y1="0%" x2="50%" y2="100%" id="gnr4scn6faixz0"><stop stop-color="#E0E5F0" offset="0%"/><stop stop-color="#D1D9E6" offset="100%"/></linearGradient></defs><g font-family="sans-serif" lengthAdjust="spacing"><rect x="0" y="0" width="722" height="776" fill="#F5F5F5" style="stroke:none;"/><g class="title" data-source-line="1"><text x="98.87" y="27.995" fill="#000" font-size="14" textLength="522.635" font-weight="700" font-family="'Arial'">Diagnosen, Prozeduren sowie Allergien und Intoleranzen erfassen</text></g><path d="M106.091,448.609 L697.375,448.609 A5,5 0 0 1 702.375,453.609 L702.375,613.063 L101.091,613.063 L101.091,453.609 A5,5 0 0 1 106.091,448.609" fill="#50E6FF" fill-opacity="0.145"/><path d="M101.091,613.063 L702.375,613.063 L702.375,660.492 A5,5 0 0 1 697.375,665.492 L106.091,665.492 A5,5 0 0 1 101.091,660.492 L101.091,613.063" fill="#FF8C00" fill-opacity="0.208"/><g><title>GDA 1</title><rect x="113.591" y="123.594" width="8" height="565.898" fill="#000" fill-opacity="0"/><line x1="117.091" y1="123.594" x2="117.091" y2="689.492" style="stroke:#181818;stroke-width:0.5;stroke-dasharray:5,5;"/></g><g><title></title><rect x="112.091" y="131.594" width="10" height="557.898" fill="#156082" fill-opacity="0.502" style="stroke:#181818;stroke-width:1;"/></g><g><title>e-Diagnose Fachanwendung</title><rect x="464.304" y="123.594" width="8" height="565.898" fill="#000" fill-opacity="0"/><line x1="467.804" y1="123.594" x2="467.804" y2="689.492" style="stroke:#181818;stroke-width:0.5;stroke-dasharray:5,5;"/></g><g><title></title><rect x="462.804" y="394.477" width="10" height="285.016" fill="#E97132" fill-opacity="0.502" style="stroke:#181818;stroke-width:1;"/></g><text x="91.81" y="120.292" fill="#000" font-size="14" textLength="44.563" font-family="'Arial'">GDA 1</text><ellipse cx="117.091" cy="55.797" rx="8" ry="8" fill="#156082" fill-opacity="0.502" style="stroke:#181818;stroke-width:0.5;"/><path d="M117.091,63.797 L117.091,90.797 M104.091,71.797 L130.091,71.797 M117.091,90.797 L104.091,105.797 M117.091,90.797 L130.091,105.797" style="stroke:#181818;stroke-width:0.5;" fill="none"/><rect x="361.451" y="92.297" width="212.707" height="30.297" fill="#E97132" fill-opacity="0.502" style="stroke:#555;stroke-width:0.5;" rx="5" ry="5"/><text x="368.451" y="112.292" fill="#000" font-size="14" textLength="198.707" font-family="'Arial'">e-Diagnose Fachanwendung</text><text x="91.81" y="702.487" fill="#000" font-size="14" textLength="44.563" font-family="'Arial'">GDA 1</text><ellipse cx="117.091" cy="714.289" rx="8" ry="8" fill="#156082" fill-opacity="0.502" style="stroke:#181818;stroke-width:0.5;"/><path d="M117.091,722.289 L117.091,749.289 M104.091,730.289 L130.091,730.289 M117.091,749.289 L104.091,764.289 M117.091,749.289 L130.091,764.289" style="stroke:#181818;stroke-width:0.5;" fill="none"/><rect x="361.451" y="689.492" width="212.707" height="30.297" fill="#E97132" fill-opacity="0.502" style="stroke:#555;stroke-width:0.5;" rx="5" ry="5"/><text x="368.451" y="709.487" fill="#000" font-size="14" textLength="198.707" font-family="'Arial'">e-Diagnose Fachanwendung</text><rect x="10" y="152.742" width="701.375" height="3" fill="#EEE" style="stroke:#EEE;stroke-width:1;" rx="5" ry="5"/><line x1="10" y1="152.742" x2="711.375" y2="152.742" style="stroke:#000;stroke-width:1;"/><line x1="10" y1="155.742" x2="711.375" y2="155.742" style="stroke:#000;stroke-width:1;"/><rect x="247.738" y="141.594" width="225.9" height="24.297" fill="#EEE" style="stroke:#000;stroke-width:2;" rx="5" ry="5"/><text x="253.738" y="158.589" fill="#000" font-size="14" textLength="207.026" font-weight="700" font-family="'Arial'">Einzelressourcen erfassen</text><line x1="122.091" y1="197.023" x2="164.091" y2="197.023" style="stroke:#111827;stroke-width:1;"/><line x1="164.091" y1="197.023" x2="164.091" y2="210.023" style="stroke:#111827;stroke-width:1;"/><line x1="123.091" y1="210.023" x2="164.091" y2="210.023" style="stroke:#111827;stroke-width:1;"/><polygon points="133.091,206.023,123.091,210.023,133.091,214.023,129.091,210.023" fill="#111827" style="stroke:#111827;stroke-width:1;stroke-linejoin:miter;stroke-miterlimit:10;"/><text x="129.091" y="191.958" fill="#000" font-size="13" font-weight="700" font-family="'Arial'">1</text><text x="142.137" y="191.958" fill="#000" font-size="13" textLength="166.156" font-family="'Arial'">Neue Ressource erstellen</text><line x1="122.091" y1="239.156" x2="164.091" y2="239.156" style="stroke:#111827;stroke-width:1;"/><line x1="164.091" y1="239.156" x2="164.091" y2="252.156" style="stroke:#111827;stroke-width:1;"/><line x1="123.091" y1="252.156" x2="164.091" y2="252.156" style="stroke:#111827;stroke-width:1;"/><polygon points="133.091,248.156,123.091,252.156,133.091,256.156,129.091,252.156" fill="#111827" style="stroke:#111827;stroke-width:1;stroke-linejoin:miter;stroke-miterlimit:10;"/><text x="129.091" y="234.09" fill="#000" font-size="13" font-weight="700" font-family="'Arial'">2</text><text x="142.137" y="234.09" fill="#000" font-size="13" textLength="217.09" font-family="'Arial'">Fachliche Informationen erfassen</text><path d="M15,270.156 L15,318.156 A5,5 0 0 0 20,323.156 L214,323.156 A5,5 0 0 0 219,318.156 L219,275.156 L209,265.156 L20,265.156 A5,5 0 0 0 15,270.156" style="stroke:#8B95A5;stroke-width:1;" fill="url(#gnr4scn6faixz0)"/><path d="M209,265.156 L209,272.656 A2.5,2.5 0 0 0 211.5,275.156 L219,275.156 L209,265.156" style="stroke:#8B95A5;stroke-width:1;" fill="url(#gnr4scn6faixz0)"/><text x="21" y="283.151" fill="#111827" font-size="14" textLength="109.525" font-family="'Arial'">Erfassung einer</text><text x="21" y="299.448" fill="#111827" font-size="14" textLength="183.183" font-family="'Arial'">Condition, Procedure oder</text><text x="21" y="315.745" fill="#111827" font-size="14" textLength="127.976" font-family="'Arial'">AllergyIntolerance</text><rect x="10" y="350.195" width="701.375" height="3" fill="#EEE" style="stroke:#EEE;stroke-width:1;" rx="5" ry="5"/><line x1="10" y1="350.195" x2="711.375" y2="350.195" style="stroke:#000;stroke-width:1;"/><line x1="10" y1="353.195" x2="711.375" y2="353.195" style="stroke:#000;stroke-width:1;"/><rect x="303.512" y="339.047" width="114.352" height="24.297" fill="#EEE" style="stroke:#000;stroke-width:2;" rx="5" ry="5"/><text x="309.512" y="356.042" fill="#000" font-size="14" textLength="95.478" font-weight="700" font-family="'Arial'">Persistieren</text><polygon points="450.804,390.477,460.804,394.477,450.804,398.477,454.804,394.477" fill="#111827" style="stroke:#111827;stroke-width:1;stroke-linejoin:miter;stroke-miterlimit:10;"/><line x1="122.091" y1="394.477" x2="456.804" y2="394.477" style="stroke:#111827;stroke-width:1;"/><text x="129.091" y="389.411" fill="#000" font-size="13" font-weight="700" font-family="'Arial'">3</text><text x="142.137" y="389.411" fill="#000" font-size="13" textLength="308.667" font-family="'Arial'">POST /[Condition|Procedure|AllergyIntolerance]</text><line x1="472.804" y1="423.609" x2="514.804" y2="423.609" style="stroke:#111827;stroke-width:1;"/><line x1="514.804" y1="423.609" x2="514.804" y2="436.609" style="stroke:#111827;stroke-width:1;"/><line x1="473.804" y1="436.609" x2="514.804" y2="436.609" style="stroke:#111827;stroke-width:1;"/><polygon points="483.804,432.609,473.804,436.609,483.804,440.609,479.804,436.609" fill="#111827" style="stroke:#111827;stroke-width:1;stroke-linejoin:miter;stroke-miterlimit:10;"/><text x="479.804" y="418.543" fill="#000" font-size="13" font-weight="700" font-family="'Arial'">4</text><text x="492.85" y="418.543" fill="#000" font-size="13" textLength="171.139" font-family="'Arial'">Validierung der Ressource</text><path d="M106.091,448.609 L462.26,448.609 L462.26,456.906 L452.26,466.906 L101.091,466.906 L101.091,453.609 A5,5 0 0 1 106.091,448.609" style="stroke:#111827;stroke-width:1.5;" fill="#EEF2FF"/><rect x="101.091" y="448.609" width="601.284" height="216.883" fill="none" style="stroke:#111827;stroke-width:2;" rx="5" ry="5"/><text x="116.091" y="462.604" fill="#000" font-size="14" textLength="311.295" font-weight="700" font-family="'Arial'">alt: Prüfung der Ressourcenvalidierung</text><text x="477.26" y="463.604" fill="#000" font-size="14" textLength="195.118" font-weight="700" font-family="'Arial'">[Validierung erfolgreich]</text><line x1="101.091" y1="613.063" x2="702.375" y2="613.063" style="stroke:#111827;stroke-width:1;stroke-dasharray:2,2;"/><text x="106.091" y="628.058" fill="#000" font-size="14" textLength="228.922" font-weight="700" font-family="'Arial'">[Validierung fehlgeschlagen]</text><line x1="472.804" y1="499.336" x2="514.804" y2="499.336" style="stroke:#111827;stroke-width:1;"/><line x1="514.804" y1="499.336" x2="514.804" y2="512.336" style="stroke:#111827;stroke-width:1;"/><line x1="473.804" y1="512.336" x2="514.804" y2="512.336" style="stroke:#111827;stroke-width:1;"/><polygon points="483.804,508.336,473.804,512.336,483.804,516.336,479.804,512.336" fill="#111827" style="stroke:#111827;stroke-width:1;stroke-linejoin:miter;stroke-miterlimit:10;"/><text x="479.804" y="494.27" fill="#000" font-size="13" font-weight="700" font-family="'Arial'">5</text><text x="492.85" y="494.27" fill="#000" font-size="13" textLength="186.526" font-family="'Arial'">Neue Ressource persistieren</text><path d="M309.785,530.336 L309.785,562.336 A5,5 0 0 0 314.785,567.336 L620.785,567.336 A5,5 0 0 0 625.785,562.336 L625.785,535.336 L615.785,525.336 L314.785,525.336 A5,5 0 0 0 309.785,530.336" style="stroke:#8B95A5;stroke-width:1;" fill="url(#gnr4scn6faixz0)"/><path d="M615.785,525.336 L615.785,532.836 A2.5,2.5 0 0 0 618.285,535.336 L625.785,535.336 L615.785,525.336" style="stroke:#8B95A5;stroke-width:1;" fill="url(#gnr4scn6faixz0)"/><text x="315.785" y="543.331" fill="#111827" font-size="14" textLength="204.969" font-family="'Arial'">Neue Ressource gespeichert.</text><text x="315.785" y="559.628" fill="#111827" font-size="14" textLength="295.039" font-family="'Arial'">Die Ressource ist zunächst nicht relevant.</text><polygon points="133.091,590.063,123.091,594.063,133.091,598.063,129.091,594.063" fill="#111827" style="stroke:#111827;stroke-width:1;stroke-linejoin:miter;stroke-miterlimit:10;"/><line x1="127.091" y1="594.063" x2="461.804" y2="594.063" style="stroke:#111827;stroke-width:1;stroke-dasharray:2,2;"/><text x="139.091" y="588.997" fill="#000" font-size="13" font-weight="700" font-family="'Arial'">6</text><text x="152.137" y="588.997" fill="#000" font-size="13" textLength="80.679" font-family="'Arial'">201 Created</text><polygon points="133.091,653.492,123.091,657.492,133.091,661.492,129.091,657.492" fill="#111827" style="stroke:#111827;stroke-width:1;stroke-linejoin:miter;stroke-miterlimit:10;"/><line x1="127.091" y1="657.492" x2="461.804" y2="657.492" style="stroke:#111827;stroke-width:1;stroke-dasharray:2,2;"/><text x="139.091" y="652.426" fill="#000" font-size="13" font-weight="700" font-family="'Arial'">7</text><text x="152.137" y="652.426" fill="#000" font-size="13" textLength="124.027" font-family="'Arial'">OperationOutcome</text><?plantuml-src TLJ1Kjim4BthAxR9jRHs825XXiua9A5CEoGJQ2yCmmXxdMXmf5IMeL3wD_sCtlYnhkp4bkrKljYhjxjltwxN21CZZ0LVIfMWV0zphLumJ3LAIDIJG1Z6CUgbeEzKXd0XZQ9lBb_8W3hY2NanbZm8kU6Qh-5UwH3rcOgLXhQN7VUM1mzBhIZI5X5rxUCWaXKFAQzSGiJZ19sRhPkMgC5tWuOOyJGsKoND9LyZj8PQyBYr7t4bNX3ye_sN_wFz-Nc3EXRomG5C9li0tsIOlM23_aZzdFCmj9LrlAfzv6hMpOuhgLG6uHS36DNLGm-xaNVG3lrmW3sBS2FrxmTTtYsiroiHF4XC4l39jd3KzEXxnyr6SQJmVR_VEIRRLQqllrs62Vv8KGOvopdNHWHYmwNPLrWLq9Y7x5H1pSuqhdTThLmuSWCCjLPFzQ8oOrMNpBGlOt6HvpeaqpantrHgB2BdLur-OTJ9gdCyo_GTA-ex6aSxFcUphxF5tVbuUES3dRRVxNdzJj_R0-XaW46lvnsF6u3vyFfYSdbj8mnweyvH0p2-69xVJOS4c0oE_KEReivYzWNoq-vwazvqskdM09F5OhR80DDf_ypp3cb-UM2evBm0da2Bti1lkNMnJTahGBk3B0-BnOFTHe8f3rPSFg4CKxbiLJbJajGecQxlKTjyuf7JdvAdTFEmqrE0YQ2T5MiIMgKwSBONd9uobZiTVDfwdy0bfWYB7Ph0YK7QXBA9j0nZ4QoGbcEaz9eReMHbExBi3rQFkDM3JR8hAWYGHDJiJCbGMBTi_mRP_WL5my7oxVjShDq06KcHhOIih3aH4uaHgEk5x0GzWVdiwXe-tXH9NeiShytmjwnKikX9JVN2NadpdSSY92AsBA9UYiUO_GasvJ3ns10h_VOtQc3benFbnWr9SgfugP6KlWN6jXC9-xdKkhTnL2fTowxi78khclyIaurDZDfyA31ZuK8eFBoaykrFiA8tIM036cDyfE4kVShUDVdlHkg45XRDhqPgGPW3aJPkvLTpXObm5HD16aA-TClR5tb6IcJpEKjDeDPR7iIAiH0RVVy7?></g></svg>