<svg xmlns="http://www.w3.org/2000/svg" xmlns:xlink="http://www.w3.org/1999/xlink" version="1.1" data-diagram-type="SEQUENCE" style="width:877px;height:1038px;background:#F5F5F5;" width="877px" height="1038px" viewBox="0 0 877 1038" zoomAndPan="magnify" preserveAspectRatio="none" contentStyleType="text/css"><?plantuml 1.2026.7beta3?><defs><linearGradient x1="50%" y1="0%" x2="50%" y2="100%" id="g1memkbnw3ee900"><stop stop-color="#E0E5F0" offset="0%"/><stop stop-color="#D1D9E6" offset="100%"/></linearGradient><filter id="f1memkbnw3ee90" x="-1" y="-1" width="300%" height="300%"><feGaussianBlur result="blurOut" stdDeviation="2"/><feColorMatrix type="matrix" in="blurOut" result="blurOut2" values="0 0 0 0 0 0 0 0 0 0 0 0 0 0 0 0 0 0 .4 0"/><feOffset result="blurOut3" in="blurOut2" dx="4" dy="4"/><feBlend in="SourceGraphic" in2="blurOut3" mode="normal"/></filter></defs><g><rect x="0" y="0" width="877" height="1038" fill="#F5F5F5" style="stroke:none;stroke-width:1;"/><g class="title" data-source-line="1"><text x="397.9714" y="27.9951" fill="#000000" font-size="14" lengthAdjust="spacing" textLength="74.2998" font-weight="700" font-family="'Arial'">List-Read</text></g><g><title>GDA 1</title><rect x="141.2817" y="128.5938" width="10" height="818.6484" fill="#0078D4" fill-opacity="0.37647" style="stroke:#181818;stroke-width:1;"/></g><g><title>e-Diagnose Fachanwendung</title><rect x="557.9912" y="194.0234" width="10" height="639.3594" fill="#F5A403" fill-opacity="0.37647" style="stroke:#181818;stroke-width:1;"/></g><rect x="101" y="251.1563" width="750.1738" height="575.2266" fill="none" style="stroke:#111827;stroke-width:2;" rx="5" ry="5"/><rect x="111" y="431.5781" width="730.1738" height="198.8203" fill="none" style="stroke:#111827;stroke-width:2;" rx="5" ry="5"/><rect x="111" y="662.6953" width="568.3447" height="156.6875" fill="none" style="stroke:#111827;stroke-width:2;" rx="5" ry="5"/><g class="participant-lifeline" data-qualified-name="GDA_1" data-entity-uid="part1" id="part1-lifeline" data-source-line="49"><g><title>GDA 1</title><rect x="142.2817" y="118.5938" width="8" height="837.6484" fill="#000000" fill-opacity="0.00000"/><line x1="146" y1="118.5938" x2="146" y2="956.2422" style="stroke:#181818;stroke-width:0.5;stroke-dasharray:5,5;"/></g></g><g class="participant-lifeline" data-qualified-name="eDiag_FA" data-entity-uid="part2" id="part2-lifeline" data-source-line="50"><g><title>e-Diagnose Fachanwendung</title><rect x="558.9912" y="118.5938" width="8" height="837.6484" fill="#000000" fill-opacity="0.00000"/><line x1="562.6377" y1="118.5938" x2="562.6377" y2="956.2422" style="stroke:#181818;stroke-width:0.5;stroke-dasharray:5,5;"/></g></g><g class="participant participant-head" data-qualified-name="GDA_1" data-entity-uid="part1" id="part1-head" data-source-line="49"><text x="121" y="115.292" fill="#000000" font-size="14" lengthAdjust="spacing" textLength="44.5635" font-family="'Arial'">GDA 1</text><ellipse cx="146.2817" cy="50.7969" rx="8" ry="8" fill="#0078D4" fill-opacity="0.37647" style="stroke:#181818;stroke-width:0.5;"/><path d="M146.2817,58.7969 L146.2817,85.7969 M133.2817,66.7969 L159.2817,66.7969 M146.2817,85.7969 L133.2817,100.7969 M146.2817,85.7969 L159.2817,100.7969" style="stroke:#181818;stroke-width:0.5;" fill="none"/></g><g class="participant participant-tail" data-qualified-name="GDA_1" data-entity-uid="part1" id="part1-tail" data-source-line="49"><text x="121" y="968.2373" fill="#000000" font-size="14" lengthAdjust="spacing" textLength="44.5635" font-family="'Arial'">GDA 1</text><ellipse cx="146.2817" cy="980.0391" rx="8" ry="8" fill="#0078D4" fill-opacity="0.37647" style="stroke:#181818;stroke-width:0.5;"/><path d="M146.2817,988.0391 L146.2817,1015.0391 M133.2817,996.0391 L159.2817,996.0391 M146.2817,1015.0391 L133.2817,1030.0391 M146.2817,1015.0391 L159.2817,1030.0391" style="stroke:#181818;stroke-width:0.5;" fill="none"/></g><g class="participant participant-head" data-qualified-name="eDiag_FA" data-entity-uid="part2" id="part2-head" data-source-line="50"><rect x="456.6377" y="87.2969" width="212.707" height="30.2969" fill="#F5A403" fill-opacity="0.37647" style="stroke:#555555;stroke-width:0.5;" rx="5" ry="5"/><text x="463.6377" y="107.292" fill="#000000" font-size="14" lengthAdjust="spacing" textLength="198.707" font-family="'Arial'">e-Diagnose Fachanwendung</text></g><g class="participant participant-tail" data-qualified-name="eDiag_FA" data-entity-uid="part2" id="part2-tail" data-source-line="50"><rect x="456.6377" y="955.2422" width="212.707" height="30.2969" fill="#F5A403" fill-opacity="0.37647" style="stroke:#555555;stroke-width:0.5;" rx="5" ry="5"/><text x="463.6377" y="975.2373" fill="#000000" font-size="14" lengthAdjust="spacing" textLength="198.707" font-family="'Arial'">e-Diagnose Fachanwendung</text></g><g><title>GDA 1</title><rect x="141.2817" y="128.5938" width="10" height="818.6484" fill="#0078D4" fill-opacity="0.37647" style="stroke:#181818;stroke-width:1;"/></g><g><title>e-Diagnose Fachanwendung</title><rect x="557.9912" y="194.0234" width="10" height="639.3594" fill="#F5A403" fill-opacity="0.37647" style="stroke:#181818;stroke-width:1;"/></g><rect x="0" y="149.7422" width="871.2427" height="3" fill="#EEEEEE" style="stroke:#EEEEEE;stroke-width:1;" rx="5" ry="5"/><line x1="0" y1="149.7422" x2="871.2427" y2="149.7422" style="stroke:#000000;stroke-width:1;"/><line x1="0" y1="152.7422" x2="871.2427" y2="152.7422" style="stroke:#000000;stroke-width:1;"/><rect x="373.6809" y="138.5938" width="123.8809" height="24.2969" fill="#EEEEEE" style="stroke:#000000;stroke-width:2;" rx="5" ry="5"/><text x="379.6809" y="155.5889" fill="#000000" font-size="14" lengthAdjust="spacing" textLength="105.0068" font-weight="700" font-family="'Arial'">Liste abrufen</text><g class="message" data-entity-1="part1" data-entity-2="part2" id="msg1" data-source-line="57"><polygon points="545.9912,190.0234,555.9912,194.0234,545.9912,198.0234,549.9912,194.0234" fill="#111827" style="stroke:#111827;stroke-width:1;stroke-linejoin:miter;stroke-miterlimit:10;"/><line x1="151.2817" y1="194.0234" x2="551.9912" y2="194.0234" style="stroke:#111827;stroke-width:1;"/><text x="158.2817" y="188.9575" fill="#000000" font-size="13" lengthAdjust="spacing" textLength="9.0454" font-weight="700" font-family="'Arial'">1</text><text x="171.3271" y="188.9575" fill="#000000" font-size="13" lengthAdjust="spacing" textLength="374.6641" font-family="'Arial'">POST /[Condition|Procedure|AllergyIntolerance]/$list-read</text></g><g class="message" data-entity-1="part2" data-entity-2="part2" id="msg2" data-source-line="61"><line x1="567.9912" y1="223.1563" x2="609.9912" y2="223.1563" style="stroke:#111827;stroke-width:1;"/><line x1="609.9912" y1="223.1563" x2="609.9912" y2="236.1563" style="stroke:#111827;stroke-width:1;"/><line x1="568.9912" y1="236.1563" x2="609.9912" y2="236.1563" style="stroke:#111827;stroke-width:1;"/><polygon points="578.9912,232.1563,568.9912,236.1563,578.9912,240.1563,574.9912,236.1563" fill="#111827" style="stroke:#111827;stroke-width:1;stroke-linejoin:miter;stroke-miterlimit:10;"/><text x="574.9912" y="218.0903" fill="#000000" font-size="13" lengthAdjust="spacing" textLength="9.0454" font-weight="700" font-family="'Arial'">2</text><text x="588.0366" y="218.0903" fill="#000000" font-size="13" lengthAdjust="spacing" textLength="261.2061" font-family="'Arial'">Ermittlung des aktuellen Listenzustands</text></g><path d="M106,251.1563 L166.9385,251.1563 L166.9385,259.4531 L156.9385,269.4531 L101,269.4531 L101,256.1563 A5,5 0 0 1 106,251.1563" style="stroke:#111827;stroke-width:1.5;" fill="#EEF2FF"/><rect x="101" y="251.1563" width="750.1738" height="575.2266" fill="none" style="stroke:#111827;stroke-width:2;" rx="5" ry="5"/><text x="116" y="265.1514" fill="#000000" font-size="14" lengthAdjust="spacing" textLength="20.9385" font-weight="700" font-family="'Arial'">alt</text><text x="181.9385" y="266.1514" fill="#000000" font-size="14" lengthAdjust="spacing" textLength="184.7344" font-weight="700" font-family="'Arial'">[Liste enthält Einträge]</text><path d="M410,280.75 L410,296.75 A5,5 0 0 0 415,301.75 L707,301.75 A5,5 0 0 0 712,296.75 L712,285.75 L702,275.75 L415,275.75 A5,5 0 0 0 410,280.75" style="stroke:#8B95A5;stroke-width:1;" fill="url(#g1memkbnw3ee900)" filter="url(#f1memkbnw3ee90)"/><path d="M702,275.75 L702,283.25 A2.5,2.5 0 0 0 704.5,285.75 L712,285.75 L702,275.75" style="stroke:#8B95A5;stroke-width:1;" fill="url(#g1memkbnw3ee900)"/><text x="416" y="293.7451" fill="#111827" font-size="14" lengthAdjust="spacing" textLength="281.9824" font-family="'Arial'">Mindestens ein Listeneintrag vorhanden</text><g class="message" data-entity-1="part2" data-entity-2="part2" id="msg3" data-source-line="69"><line x1="567.9912" y1="361.4453" x2="609.9912" y2="361.4453" style="stroke:#111827;stroke-width:1;"/><line x1="609.9912" y1="361.4453" x2="609.9912" y2="374.4453" style="stroke:#111827;stroke-width:1;"/><line x1="568.9912" y1="374.4453" x2="609.9912" y2="374.4453" style="stroke:#111827;stroke-width:1;"/><polygon points="578.9912,370.4453,568.9912,374.4453,578.9912,378.4453,574.9912,374.4453" fill="#111827" style="stroke:#111827;stroke-width:1;stroke-linejoin:miter;stroke-miterlimit:10;"/><text x="574.9912" y="341.2466" fill="#000000" font-size="13" lengthAdjust="spacing" textLength="9.0454" font-weight="700" font-family="'Arial'">3</text><text x="588.0366" y="326.1138" fill="#000000" font-size="13" lengthAdjust="spacing" textLength="208.0698" font-family="'Arial'">Aufbereitung der Listeneinträge</text><text x="588.0366" y="341.2466" fill="#000000" font-size="13" lengthAdjust="spacing" textLength="179.0737" font-family="'Arial'">new|changed → unchanged</text><text x="588.0366" y="356.3794" fill="#000000" font-size="13" lengthAdjust="spacing" textLength="140.791" font-family="'Arial'">removed → entfernen</text></g><g class="message" data-entity-1="part2" data-entity-2="part2" id="msg4" data-source-line="71"><line x1="567.9912" y1="403.5781" x2="609.9912" y2="403.5781" style="stroke:#111827;stroke-width:1;"/><line x1="609.9912" y1="403.5781" x2="609.9912" y2="416.5781" style="stroke:#111827;stroke-width:1;"/><line x1="568.9912" y1="416.5781" x2="609.9912" y2="416.5781" style="stroke:#111827;stroke-width:1;"/><polygon points="578.9912,412.5781,568.9912,416.5781,578.9912,420.5781,574.9912,416.5781" fill="#111827" style="stroke:#111827;stroke-width:1;stroke-linejoin:miter;stroke-miterlimit:10;"/><text x="574.9912" y="398.5122" fill="#000000" font-size="13" lengthAdjust="spacing" textLength="9.0454" font-weight="700" font-family="'Arial'">4</text><text x="588.0366" y="398.5122" fill="#000000" font-size="13" lengthAdjust="spacing" textLength="223.8818" font-family="'Arial'">Prüfung auf verbleibende Einträge</text></g><path d="M116,431.5781 L176.9385,431.5781 L176.9385,439.875 L166.9385,449.875 L111,449.875 L111,436.5781 A5,5 0 0 1 116,431.5781" style="stroke:#111827;stroke-width:1.5;" fill="#EEF2FF"/><rect x="111" y="431.5781" width="730.1738" height="198.8203" fill="none" style="stroke:#111827;stroke-width:2;" rx="5" ry="5"/><text x="126" y="445.5732" fill="#000000" font-size="14" lengthAdjust="spacing" textLength="20.9385" font-weight="700" font-family="'Arial'">alt</text><text x="191.9385" y="446.5732" fill="#000000" font-size="14" lengthAdjust="spacing" textLength="264.3799" font-weight="700" font-family="'Arial'">[Keine Einträge mehr vorhanden]</text><g class="message" data-entity-1="part2" data-entity-2="part2" id="msg5" data-source-line="74"><line x1="567.9912" y1="472.3047" x2="609.9912" y2="472.3047" style="stroke:#111827;stroke-width:1;"/><line x1="609.9912" y1="472.3047" x2="609.9912" y2="485.3047" style="stroke:#111827;stroke-width:1;"/><line x1="568.9912" y1="485.3047" x2="609.9912" y2="485.3047" style="stroke:#111827;stroke-width:1;"/><polygon points="578.9912,481.3047,568.9912,485.3047,578.9912,489.3047,574.9912,485.3047" fill="#111827" style="stroke:#111827;stroke-width:1;stroke-linejoin:miter;stroke-miterlimit:10;"/><text x="574.9912" y="467.2388" fill="#000000" font-size="13" lengthAdjust="spacing" textLength="9.0454" font-weight="700" font-family="'Arial'">5</text><text x="588.0366" y="467.2388" fill="#000000" font-size="13" lengthAdjust="spacing" textLength="231.1372" font-family="'Arial'">Setzt List.emptyReason = nilknown</text></g><g class="message" data-entity-1="part2" data-entity-2="part1" id="msg6" data-source-line="75"><polygon points="162.2817,540.7031,152.2817,544.7031,162.2817,548.7031,158.2817,544.7031" fill="#111827" style="stroke:#111827;stroke-width:1;stroke-linejoin:miter;stroke-miterlimit:10;"/><line x1="156.2817" y1="544.7031" x2="556.9912" y2="544.7031" style="stroke:#111827;stroke-width:1;"/><text x="168.2817" y="524.5044" fill="#000000" font-size="13" lengthAdjust="spacing" textLength="9.0454" font-weight="700" font-family="'Arial'">6</text><text x="181.3271" y="509.3716" fill="#000000" font-size="13" lengthAdjust="spacing" textLength="153.48" font-family="'Arial'">Collection-Bundle (leer)</text><text x="181.3271" y="524.5044" fill="#000000" font-size="13" lengthAdjust="spacing" textLength="166.8799" font-family="'Arial'">emptyReason = nilknown</text><text x="181.3271" y="539.6372" fill="#000000" font-size="13" lengthAdjust="spacing" textLength="194.0288" font-family="'Arial'">+ ETag für Optimistic Locking</text></g><line x1="111" y1="553.7031" x2="841.1738" y2="553.7031" style="stroke:#111827;stroke-width:1;stroke-dasharray:2,2;"/><text x="116" y="566.6982" fill="#000000" font-size="14" lengthAdjust="spacing" textLength="169.0732" font-weight="700" font-family="'Arial'">[Einträge vorhanden]</text><g class="message" data-entity-1="part2" data-entity-2="part1" id="msg7" data-source-line="78"><polygon points="162.2817,618.3984,152.2817,622.3984,162.2817,626.3984,158.2817,622.3984" fill="#111827" style="stroke:#111827;stroke-width:1;stroke-linejoin:miter;stroke-miterlimit:10;"/><line x1="156.2817" y1="622.3984" x2="556.9912" y2="622.3984" style="stroke:#111827;stroke-width:1;"/><text x="168.2817" y="602.1997" fill="#000000" font-size="13" lengthAdjust="spacing" textLength="9.0454" font-weight="700" font-family="'Arial'">7</text><text x="181.3271" y="587.0669" fill="#000000" font-size="13" lengthAdjust="spacing" textLength="114.2515" font-family="'Arial'">Collection-Bundle</text><text x="181.3271" y="602.1997" fill="#000000" font-size="13" lengthAdjust="spacing" textLength="127.2134" font-family="'Arial'">mit Listeneinträgen</text><text x="181.3271" y="617.3325" fill="#000000" font-size="13" lengthAdjust="spacing" textLength="194.0288" font-family="'Arial'">+ ETag für Optimistic Locking</text></g><line x1="101" y1="638.3984" x2="851.1738" y2="638.3984" style="stroke:#111827;stroke-width:1;stroke-dasharray:2,2;"/><text x="106" y="651.3936" fill="#000000" font-size="14" lengthAdjust="spacing" textLength="86.6045" font-weight="700" font-family="'Arial'">[Liste leer]</text><path d="M116,662.6953 L176.9385,662.6953 L176.9385,670.9922 L166.9385,680.9922 L111,680.9922 L111,667.6953 A5,5 0 0 1 116,662.6953" style="stroke:#111827;stroke-width:1.5;" fill="#EEF2FF"/><rect x="111" y="662.6953" width="568.3447" height="156.6875" fill="none" style="stroke:#111827;stroke-width:2;" rx="5" ry="5"/><text x="126" y="676.6904" fill="#000000" font-size="14" lengthAdjust="spacing" textLength="20.9385" font-weight="700" font-family="'Arial'">alt</text><text x="191.9385" y="677.6904" fill="#000000" font-size="14" lengthAdjust="spacing" textLength="225.7021" font-weight="700" font-family="'Arial'">[emptyReason = notstarted]</text><g class="message" data-entity-1="part2" data-entity-2="part1" id="msg8" data-source-line="84"><polygon points="162.2817,729.6875,152.2817,733.6875,162.2817,737.6875,158.2817,733.6875" fill="#111827" style="stroke:#111827;stroke-width:1;stroke-linejoin:miter;stroke-miterlimit:10;"/><line x1="156.2817" y1="733.6875" x2="556.9912" y2="733.6875" style="stroke:#111827;stroke-width:1;"/><text x="168.2817" y="713.4888" fill="#000000" font-size="13" lengthAdjust="spacing" textLength="9.0454" font-weight="700" font-family="'Arial'">8</text><text x="181.3271" y="698.356" fill="#000000" font-size="13" lengthAdjust="spacing" textLength="153.48" font-family="'Arial'">Collection-Bundle (leer)</text><text x="181.3271" y="713.4888" fill="#000000" font-size="13" lengthAdjust="spacing" textLength="176.6426" font-family="'Arial'">emptyReason = notstarted</text><text x="181.3271" y="728.6216" fill="#000000" font-size="13" lengthAdjust="spacing" textLength="194.0288" font-family="'Arial'">+ ETag für Optimistic Locking</text></g><line x1="111" y1="742.6875" x2="679.3447" y2="742.6875" style="stroke:#111827;stroke-width:1;stroke-dasharray:2,2;"/><text x="116" y="755.6826" fill="#000000" font-size="14" lengthAdjust="spacing" textLength="213.1992" font-weight="700" font-family="'Arial'">[emptyReason = nilknown]</text><g class="message" data-entity-1="part2" data-entity-2="part1" id="msg9" data-source-line="87"><polygon points="162.2817,807.3828,152.2817,811.3828,162.2817,815.3828,158.2817,811.3828" fill="#111827" style="stroke:#111827;stroke-width:1;stroke-linejoin:miter;stroke-miterlimit:10;"/><line x1="156.2817" y1="811.3828" x2="556.9912" y2="811.3828" style="stroke:#111827;stroke-width:1;"/><text x="168.2817" y="791.1841" fill="#000000" font-size="13" lengthAdjust="spacing" textLength="9.0454" font-weight="700" font-family="'Arial'">9</text><text x="181.3271" y="776.0513" fill="#000000" font-size="13" lengthAdjust="spacing" textLength="153.48" font-family="'Arial'">Collection-Bundle (leer)</text><text x="181.3271" y="791.1841" fill="#000000" font-size="13" lengthAdjust="spacing" textLength="166.8799" font-family="'Arial'">emptyReason = nilknown</text><text x="181.3271" y="806.3169" fill="#000000" font-size="13" lengthAdjust="spacing" textLength="194.0288" font-family="'Arial'">+ ETag für Optimistic Locking</text></g><g class="message" data-entity-1="part1" data-entity-2="part1" id="msg10" data-source-line="94"><line x1="151.2817" y1="869.6484" x2="193.2817" y2="869.6484" style="stroke:#111827;stroke-width:1;"/><line x1="193.2817" y1="869.6484" x2="193.2817" y2="882.6484" style="stroke:#111827;stroke-width:1;"/><line x1="152.2817" y1="882.6484" x2="193.2817" y2="882.6484" style="stroke:#111827;stroke-width:1;"/><polygon points="162.2817,878.6484,152.2817,882.6484,162.2817,886.6484,158.2817,882.6484" fill="#111827" style="stroke:#111827;stroke-width:1;stroke-linejoin:miter;stroke-miterlimit:10;"/><text x="158.2817" y="857.0161" fill="#000000" font-size="13" lengthAdjust="spacing" textLength="18.0908" font-weight="700" font-family="'Arial'">10</text><text x="180.3726" y="849.4497" fill="#000000" font-size="13" lengthAdjust="spacing" textLength="174.1924" font-family="'Arial'">Listeneinträge hinzufügen,</text><text x="180.3726" y="864.5825" fill="#000000" font-size="13" lengthAdjust="spacing" textLength="147.583" font-family="'Arial'">ändern oder entfernen</text></g><path d="M5,900.6484 L5,932.6484 A5,5 0 0 0 10,937.6484 L279,937.6484 A5,5 0 0 0 284,932.6484 L284,905.6484 L274,895.6484 L10,895.6484 A5,5 0 0 0 5,900.6484" style="stroke:#8B95A5;stroke-width:1;" fill="url(#g1memkbnw3ee900)" filter="url(#f1memkbnw3ee90)"/><path d="M274,895.6484 L274,903.1484 A2.5,2.5 0 0 0 276.5,905.6484 L284,905.6484 L274,895.6484" style="stroke:#8B95A5;stroke-width:1;" fill="url(#g1memkbnw3ee900)"/><text x="11" y="913.6436" fill="#111827" font-size="14" lengthAdjust="spacing" textLength="197.0527" font-family="'Arial'">Die Liste kann anschließend</text><text x="11" y="929.9404" fill="#111827" font-size="14" lengthAdjust="spacing" textLength="258.9863" font-family="'Arial'">mittels $list-write persistiert werden.</text><?plantuml-src nLNDRY974BxFKrJi718bx0Bs05x9aJ0U76kz2yBaaX1PpKmDj1YgsPuU8plETHyWBv2B7sDll4cU9DKpC6v-h4JA8OE4Phg_hg_ggvysqYG8Dp8rbG6AoFFIcQI5q68EOwKZr1sLA0t7rVnnTqKucsYLKRH6nBxzEOXqAYArb3I1M2GfEZlhOvfGGyqr6c4iiiHq5PcFOevmrDPI94U74RVo4Q5sUdXpssq7GyeW_EO1NEm6W5NqushbEAf5PzYm25U0rlZC5twvEfpAS4QOfb3ZjO4JK8k_-oAARE3MYkDDhLPhrPkyTbjAOtI6tk-kWpy-B50dacPE245m2F0JHVaBhWLsjSTF6L9OHDeNsiXGBWIPhP3y_Da1xAKrVxP1-mBlRM-IixMnaQLk3xIrLijTOVB5RMtpfKECvKR1TS9BL-pvOYl6qdAnjPTpZEjvTCx95_gwpSnNN5LMuqxlfZUukxfitzM07_QZsReyRLGF0EeveDLid5wqzW3zzl0w-3ZCBPpvLNyFqExt0DOK5ytEoHxWyhfzTTTjW-qvSLhT1mHtW-3de3-4uw1vsl8R3DX1zDx3ciEl1erkj-xlcXWCUeCSqEssEjNgYUzv8ZIiMQ60IE68tw1sv0hZBLwI3NWfnSJwQR5OiL-aKeIk2AU2baXHHfEZxPYO93EAilaOjUMJzuBRjQ1qURppytne8OYnpc8aE3_tl09N-Q6aVWVztkqGtlxIKHH98nKzzRKACSeqFhMJ1FNauPgCuXV1tVBhswyJEmbrFWbB-ZAG7LVBzIt6GC-bCGd7nlCe1J4p6J8J5VxIOvOQGL7AzXEpZW79J5VF_1b8CdhrFE5UpkUKkkU1iZ7jVP3SyDP62YWtzj0U4HEuLvfLZP0y5ZQVSgyvsCvYLXUbALpKhY7BFIB2vPFDqGGZ-Elp7v3H-cj46kViLB7CRiV8CuzUO-hhrPVOieWi1WvbdA0Sitle1cfbU8-syif5cEDKkn4Tj7wBvh5Gy0tE5-Q1xwzKSI40oMH6QhbzBg-DTy1zds1eAw5omME0xxvl4aJzxOWEsnZHTn0CMTzuzKL3Rs7ad0bb23Sgv6axuT1vz3gk7_RwDVOHSR7i9k2VILd3DN5HG3Q4GicTA9JXQjC6e_-aHMdbNwhnFwQZKCR-HRZNmCw4MFFlA0zJoGtAjZa9tuzezMnlM09bkyIfzfVUBARHfTmaOYQ8G50QJXE9gp-j8tOQi2fGZ9QbbWpZ2porVgCsi4I-TEXDsRP_0m00?></g></svg>