<?xml version="1.0" encoding="us-ascii" standalone="no"?><svg xmlns="http://www.w3.org/2000/svg" xmlns:xlink="http://www.w3.org/1999/xlink" contentStyleType="text/css" height="817px" preserveAspectRatio="none" style="width:1038px;height:817px;background:#F5F5F5;" version="1.1" viewBox="0 0 1038 817" width="1038px" zoomAndPan="magnify"><defs><linearGradient id="gsj4mtvwx8tuy0" x1="50%" x2="50%" y1="0%" y2="100%"><stop offset="0%" stop-color="#E0E5F0"/><stop offset="100%" stop-color="#D1D9E6"/></linearGradient><filter height="300%" id="fsj4mtvwx8tuy" width="300%" x="-1" y="-1"><feGaussianBlur result="blurOut" stdDeviation="2.0"/><feColorMatrix in="blurOut" result="blurOut2" type="matrix" values="0 0 0 0 0 0 0 0 0 0 0 0 0 0 0 0 0 0 .4 0"/><feOffset dx="4.0" dy="4.0" in="blurOut2" result="blurOut3"/><feBlend in="SourceGraphic" in2="blurOut3" mode="normal"/></filter></defs><g><rect fill="#F5F5F5" height="817" style="stroke:none;stroke-width:1.0;" width="1038" x="0" y="0"/><rect fill="#9FBAC4" height="791.4146" rx="5" ry="5" style="stroke:#181818;stroke-width:0.5;" width="64" x="146" y="6"/><text fill="#000000" font-family="Arial" font-size="14" font-weight="bold" lengthAdjust="spacing" textLength="4" x="149" y="19.1318">&#160;</text><text fill="#000000" font-family="Arial" font-size="14" font-weight="bold" lengthAdjust="spacing" textLength="42" x="157" y="35.2305">GDA 1</text><rect fill="#C48778" height="791.4146" rx="5" ry="5" style="stroke:#181818;stroke-width:0.5;" width="223" x="369" y="6"/><text fill="#000000" font-family="Arial" font-size="14" font-weight="bold" lengthAdjust="spacing" textLength="4" x="372" y="19.1318">&#160;</text><text fill="#000000" font-family="Arial" font-size="14" font-weight="bold" lengthAdjust="spacing" textLength="165" x="400" y="35.2305">e-Diag Fachanwendung</text><rect fill="#BEAEBE" height="791.4146" rx="5" ry="5" style="stroke:#181818;stroke-width:0.5;" width="72" x="829" y="6"/><text fill="#000000" font-family="Arial" font-size="14" font-weight="bold" lengthAdjust="spacing" textLength="4" x="832" y="19.1318">&#160;</text><text fill="#000000" font-family="Arial" font-size="14" font-weight="bold" lengthAdjust="spacing" textLength="42" x="848" y="35.2305">GDA 2</text><rect fill="#BAC38B" height="791.4146" rx="5" ry="5" style="stroke:#181818;stroke-width:0.5;" width="67" x="943" y="6"/><text fill="#000000" font-family="Arial" font-size="14" font-weight="bold" lengthAdjust="spacing" textLength="4" x="946" y="19.1318">&#160;</text><text fill="#000000" font-family="Arial" font-size="14" font-weight="bold" lengthAdjust="spacing" textLength="49" x="950" y="35.2305">Patient</text><rect fill="#FFFFFF" height="515.9727" style="stroke:#181818;stroke-width:1.0;" width="10" x="173" y="193.3433"/><rect fill="#FFFFFF" height="402.8267" style="stroke:#181818;stroke-width:1.0;" width="10" x="475.5" y="193.3433"/><rect fill="none" height="283.7319" rx="5" ry="5" style="stroke:#111827;stroke-width:2.0;" width="663.5" x="144" y="320.438"/><line style="stroke:#181818;stroke-width:0.5;stroke-dasharray:5.0,5.0;" x1="178" x2="178" y1="118.2959" y2="718.3159"/><line style="stroke:#181818;stroke-width:0.5;stroke-dasharray:5.0,5.0;" x1="480.5" x2="480.5" y1="118.2959" y2="718.3159"/><line style="stroke:#181818;stroke-width:0.5;stroke-dasharray:5.0,5.0;" x1="865" x2="865" y1="118.2959" y2="718.3159"/><line style="stroke:#181818;stroke-width:0.5;stroke-dasharray:5.0,5.0;" x1="976.5" x2="976.5" y1="118.2959" y2="718.3159"/><text fill="#000000" font-family="Arial" font-size="14" lengthAdjust="spacing" textLength="42" x="154" y="115.3291">GDA 1</text><ellipse cx="178" cy="50.6973" fill="#E2E2F0" rx="8" ry="8" style="stroke:#181818;stroke-width:0.5;"/><path d="M178,58.6973 L178,85.6973 M165,66.6973 L191,66.6973 M178,85.6973 L165,100.6973 M178,85.6973 L191,100.6973 " fill="none" style="stroke:#181818;stroke-width:0.5;"/><text fill="#000000" font-family="Arial" font-size="14" lengthAdjust="spacing" textLength="42" x="154" y="730.4478">GDA 1</text><ellipse cx="178" cy="741.9146" fill="#E2E2F0" rx="8" ry="8" style="stroke:#181818;stroke-width:0.5;"/><path d="M178,749.9146 L178,776.9146 M165,757.9146 L191,757.9146 M178,776.9146 L165,791.9146 M178,776.9146 L191,791.9146 " fill="none" style="stroke:#181818;stroke-width:0.5;"/><rect fill="#FFFFFF" height="30.0986" rx="5" ry="5" style="stroke:#555555;stroke-width:0.5;" width="76" x="442.5" y="87.1973"/><text fill="#000000" font-family="Arial" font-size="14" lengthAdjust="spacing" textLength="62" x="449.5" y="107.3291">e-Med FA</text><rect fill="#FFFFFF" height="30.0986" rx="5" ry="5" style="stroke:#555555;stroke-width:0.5;" width="76" x="442.5" y="717.3159"/><text fill="#000000" font-family="Arial" font-size="14" lengthAdjust="spacing" textLength="62" x="449.5" y="737.4478">e-Med FA</text><text fill="#000000" font-family="Arial" font-size="14" lengthAdjust="spacing" textLength="42" x="841" y="115.3291">GDA 2</text><ellipse cx="865" cy="50.6973" fill="#E2E2F0" rx="8" ry="8" style="stroke:#181818;stroke-width:0.5;"/><path d="M865,58.6973 L865,85.6973 M852,66.6973 L878,66.6973 M865,85.6973 L852,100.6973 M865,85.6973 L878,100.6973 " fill="none" style="stroke:#181818;stroke-width:0.5;"/><text fill="#000000" font-family="Arial" font-size="14" lengthAdjust="spacing" textLength="42" x="841" y="730.4478">GDA 2</text><ellipse cx="865" cy="741.9146" fill="#E2E2F0" rx="8" ry="8" style="stroke:#181818;stroke-width:0.5;"/><path d="M865,749.9146 L865,776.9146 M852,757.9146 L878,757.9146 M865,776.9146 L852,791.9146 M865,776.9146 L878,791.9146 " fill="none" style="stroke:#181818;stroke-width:0.5;"/><text fill="#000000" font-family="Arial" font-size="14" lengthAdjust="spacing" textLength="44" x="951.5" y="115.3291">Patient</text><ellipse cx="976.5" cy="50.6973" fill="#E2E2F0" rx="8" ry="8" style="stroke:#181818;stroke-width:0.5;"/><path d="M976.5,58.6973 L976.5,85.6973 M963.5,66.6973 L989.5,66.6973 M976.5,85.6973 L963.5,100.6973 M976.5,85.6973 L989.5,100.6973 " fill="none" style="stroke:#181818;stroke-width:0.5;"/><text fill="#000000" font-family="Arial" font-size="14" lengthAdjust="spacing" textLength="44" x="951.5" y="730.4478">Patient</text><ellipse cx="976.5" cy="741.9146" fill="#E2E2F0" rx="8" ry="8" style="stroke:#181818;stroke-width:0.5;"/><path d="M976.5,749.9146 L976.5,776.9146 M963.5,757.9146 L989.5,757.9146 M976.5,776.9146 L963.5,791.9146 M976.5,776.9146 L989.5,791.9146 " fill="none" style="stroke:#181818;stroke-width:0.5;"/><rect fill="#FFFFFF" height="515.9727" style="stroke:#181818;stroke-width:1.0;" width="10" x="173" y="193.3433"/><rect fill="#FFFFFF" height="402.8267" style="stroke:#181818;stroke-width:1.0;" width="10" x="475.5" y="193.3433"/><rect fill="#EEEEEE" height="3" rx="5" ry="5" style="stroke:#EEEEEE;stroke-width:1.0;" width="1031" x="0" y="149.3452"/><line style="stroke:#000000;stroke-width:1.0;" x1="0" x2="1031" y1="149.3452" y2="149.3452"/><line style="stroke:#000000;stroke-width:1.0;" x1="0" x2="1031" y1="152.3452" y2="152.3452"/><rect fill="#EEEEEE" height="24.0986" rx="5" ry="5" style="stroke:#000000;stroke-width:2.0;" width="115" x="458" y="138.2959"/><text fill="#000000" font-family="Arial" font-size="14" font-weight="bold" lengthAdjust="spacing" textLength="97" x="464" y="155.4277">Read-to-Write</text><line style="stroke:#111827;stroke-width:1.0;" x1="473.5" x2="463.5" y1="193.3433" y2="189.3433"/><line style="stroke:#111827;stroke-width:1.0;" x1="473.5" x2="463.5" y1="193.3433" y2="197.3433"/><line style="stroke:#111827;stroke-width:1.0;" x1="183" x2="474.5" y1="193.3433" y2="193.3433"/><text fill="#000000" font-family="Arial" font-size="13" font-weight="bold" lengthAdjust="spacing" textLength="7" x="190" y="188.5884">1</text><text fill="#000000" font-family="Arial" font-size="13" lengthAdjust="spacing" textLength="109" x="201" y="188.5884">POST $readtowrite</text><path d="M73,211.3433 L73,243.3433 A5,5 0 0 0 78,248.3433 L274,248.3433 A5,5 0 0 0 279,243.3433 L279,216.3433 L269,206.3433 L78,206.3433 A5,5 0 0 0 73,211.3433 " fill="url(#gsj4mtvwx8tuy0)" filter="url(#fsj4mtvwx8tuy)" style="stroke:#8B95A5;stroke-width:1.0;"/><path d="M269,206.3433 L269,213.8433 A2.5,2.5 0 0 0 271.5,216.3433 L279,216.3433 L269,206.3433 " fill="url(#gsj4mtvwx8tuy0)" style="stroke:#8B95A5;stroke-width:1.0;"/><text fill="#111827" font-family="Arial" font-size="14" lengthAdjust="spacing" textLength="159" x="79" y="224.4751">Medikationsplan abrufen,</text><text fill="#111827" font-family="Arial" font-size="14" lengthAdjust="spacing" textLength="185" x="79" y="240.5737">mit der Intention zu schreiben</text><line style="stroke:#111827;stroke-width:1.0;" x1="485.5" x2="527.5" y1="292.438" y2="292.438"/><line style="stroke:#111827;stroke-width:1.0;" x1="527.5" x2="527.5" y1="292.438" y2="305.438"/><line style="stroke:#111827;stroke-width:1.0;" x1="486.5" x2="527.5" y1="305.438" y2="305.438"/><polygon fill="#111827" points="496.5,301.438,486.5,305.438,496.5,309.438,492.5,305.438" style="stroke:#111827;stroke-width:1.0;"/><text fill="#000000" font-family="Arial" font-size="13" font-weight="bold" lengthAdjust="spacing" textLength="7" x="492.5" y="280.2087">2</text><text fill="#000000" font-family="Arial" font-size="13" lengthAdjust="spacing" textLength="143" x="503.5" y="272.7344">Pr&#252;fung auf bestehenden</text><text fill="#000000" font-family="Arial" font-size="13" lengthAdjust="spacing" textLength="94" x="503.5" y="287.6831">Medikationsplan</text><path d="M149,320.438 L206,320.438 L206,328.5366 L196,338.5366 L144,338.5366 L144,325.438 A5,5 0 0 1 149,320.438 " fill="#EEF2FF" style="stroke:#111827;stroke-width:1.5;"/><rect fill="none" height="283.7319" rx="5" ry="5" style="stroke:#111827;stroke-width:2.0;" width="663.5" x="144" y="320.438"/><text fill="#000000" font-family="Arial" font-size="14" font-weight="bold" lengthAdjust="spacing" textLength="17" x="159" y="334.5698">alt</text><text fill="#000000" font-family="Arial" font-size="14" font-weight="bold" lengthAdjust="spacing" textLength="241" x="221" y="335.5698">[kein Medikationsplan vorhanden]</text><line style="stroke:#111827;stroke-width:1.0;" x1="485.5" x2="527.5" y1="390.4814" y2="390.4814"/><line style="stroke:#111827;stroke-width:1.0;" x1="527.5" x2="527.5" y1="390.4814" y2="403.4814"/><line style="stroke:#111827;stroke-width:1.0;" x1="486.5" x2="527.5" y1="403.4814" y2="403.4814"/><polygon fill="#111827" points="496.5,399.4814,486.5,403.4814,496.5,407.4814,492.5,403.4814" style="stroke:#111827;stroke-width:1.0;"/><text fill="#000000" font-family="Arial" font-size="13" font-weight="bold" lengthAdjust="spacing" textLength="7" x="492.5" y="370.7778">3</text><text fill="#000000" font-family="Arial" font-size="13" lengthAdjust="spacing" textLength="122" x="503.5" y="355.8291">Kein Plan vorhanden:</text><text fill="#000000" font-family="Arial" font-size="13" lengthAdjust="spacing" textLength="278" x="503.5" y="370.7778">Fachanwendung erzeugt leeren Medikationsplan</text><text fill="#000000" font-family="Arial" font-size="13" lengthAdjust="spacing" textLength="186" x="507.5" y="385.7266">mit emptyReason = "notstarted"</text><line style="stroke:#111827;stroke-width:1.0;" x1="184" x2="194" y1="432.4302" y2="428.4302"/><line style="stroke:#111827;stroke-width:1.0;" x1="184" x2="194" y1="432.4302" y2="436.4302"/><line style="stroke:#111827;stroke-width:1.0;stroke-dasharray:2.0,2.0;" x1="183" x2="474.5" y1="432.4302" y2="432.4302"/><text fill="#000000" font-family="Arial" font-size="13" font-weight="bold" lengthAdjust="spacing" textLength="7" x="200" y="427.6753">4</text><text fill="#000000" font-family="Arial" font-size="13" lengthAdjust="spacing" textLength="134" x="211" y="427.6753">Leerer Medikationsplan</text><line style="stroke:#111827;stroke-width:1.0;stroke-dasharray:2.0,2.0;" x1="144" x2="807.5" y1="441.4302" y2="441.4302"/><text fill="#000000" font-family="Arial" font-size="14" font-weight="bold" lengthAdjust="spacing" textLength="207" x="149" y="454.562">[Medikationsplan vorhanden]</text><line style="stroke:#111827;stroke-width:1.0;" x1="485.5" x2="527.5" y1="554.2212" y2="554.2212"/><line style="stroke:#111827;stroke-width:1.0;" x1="527.5" x2="527.5" y1="554.2212" y2="567.2212"/><line style="stroke:#111827;stroke-width:1.0;" x1="486.5" x2="527.5" y1="567.2212" y2="567.2212"/><polygon fill="#111827" points="496.5,563.2212,486.5,567.2212,496.5,571.2212,492.5,567.2212" style="stroke:#111827;stroke-width:1.0;"/><text fill="#000000" font-family="Arial" font-size="13" font-weight="bold" lengthAdjust="spacing" textLength="7" x="492.5" y="512.0945">5</text><text fill="#000000" font-family="Arial" font-size="13" lengthAdjust="spacing" textLength="92" x="503.5" y="474.7227">Plan vorhanden:</text><text fill="#000000" font-family="Arial" font-size="13" lengthAdjust="spacing" textLength="270" x="503.5" y="489.6714">stellt Collection Bundle zur Auslieferung bereit:</text><text fill="#000000" font-family="Arial" font-size="13" lengthAdjust="spacing" textLength="292" x="503.5" y="504.6201">(inkl. neuem tempor&#228;r gespeicherten List.identifier)</text><text fill="#000000" font-family="Arial" font-size="13" lengthAdjust="spacing" textLength="272" x="503.5" y="519.5688">Bedingung f&#252;r Read-to-Write Collection Bundle:</text><text fill="#000000" font-family="Arial" font-size="13" lengthAdjust="spacing" textLength="167" x="503.5" y="534.5176">- new|changed &#8594; unchanged</text><text fill="#000000" font-family="Arial" font-size="13" lengthAdjust="spacing" textLength="130" x="503.5" y="549.4663">- removed &#8594; entfernen</text><line style="stroke:#111827;stroke-width:1.0;" x1="184" x2="194" y1="596.1699" y2="592.1699"/><line style="stroke:#111827;stroke-width:1.0;" x1="184" x2="194" y1="596.1699" y2="600.1699"/><line style="stroke:#111827;stroke-width:1.0;stroke-dasharray:2.0,2.0;" x1="183" x2="479.5" y1="596.1699" y2="596.1699"/><text fill="#000000" font-family="Arial" font-size="13" font-weight="bold" lengthAdjust="spacing" textLength="7" x="200" y="591.415">6</text><text fill="#000000" font-family="Arial" font-size="13" lengthAdjust="spacing" textLength="190" x="211" y="591.415">Collection Bundle + List.identifier</text><line style="stroke:#111827;stroke-width:1.0;" x1="183" x2="225" y1="632.1187" y2="632.1187"/><line style="stroke:#111827;stroke-width:1.0;" x1="225" x2="225" y1="632.1187" y2="645.1187"/><line style="stroke:#111827;stroke-width:1.0;" x1="184" x2="225" y1="645.1187" y2="645.1187"/><polygon fill="#111827" points="194,641.1187,184,645.1187,194,649.1187,190,645.1187" style="stroke:#111827;stroke-width:1.0;"/><text fill="#000000" font-family="Arial" font-size="13" font-weight="bold" lengthAdjust="spacing" textLength="7" x="190" y="627.3638">7</text><text fill="#000000" font-family="Arial" font-size="13" lengthAdjust="spacing" textLength="214" x="201" y="627.3638">Eintr&#228;ge hinzuf&#252;gen/&#228;ndern/entfernen</text><path d="M5,663.1187 L5,695.1187 A5,5 0 0 0 10,700.1187 L343,700.1187 A5,5 0 0 0 348,695.1187 L348,668.1187 L338,658.1187 L10,658.1187 A5,5 0 0 0 5,663.1187 " fill="url(#gsj4mtvwx8tuy0)" filter="url(#fsj4mtvwx8tuy)" style="stroke:#8B95A5;stroke-width:1.0;"/><path d="M338,658.1187 L338,665.6187 A2.5,2.5 0 0 0 340.5,668.1187 L348,668.1187 L338,658.1187 " fill="url(#gsj4mtvwx8tuy0)" style="stroke:#8B95A5;stroke-width:1.0;"/><text fill="#111827" font-family="Arial" font-size="14" lengthAdjust="spacing" textLength="178" x="11" y="676.2505">Medikationsplan bearbeiten.</text><text fill="#111827" font-family="Arial" font-size="14" lengthAdjust="spacing" textLength="322" x="11" y="692.3491">Nach Fertigstellung kann ein Write-Zugriff erfolgen.</text><text fill="#000000" font-family="Arial" font-size="10" lengthAdjust="spacing" textLength="97" x="466.5" y="807.7944">Read-to-Write-Zugriff</text><!--SRC=[dLNRRjD047tVhnYbF830fKu9JIi5AOK64BU8Wf1G9RIsnyugpcnOhvjIu9KFu1lu3Dxw9tm9ivkR7Lj2OlCGP-TovfoPSOgfehaqSWQHDWcQnphN1lOE_175rYhZQMPqISdA8-svJyMZcCX4BnHbaCgym8fb5MO83OJLf0cciipjI9DzBMS8dQ5HCk-qUvohQuJmGRknNdR5XxH5-2e0JdS9u07sqeDWBmcJOtpeFAe2zAFZdknjRjzDL3mbB0e8-UvjXL2VVuzbaZZYBakbcZ0C-zqZlZlVI6DDYU9xjS1dN-PeSaNJ2eMpipQ7zvJu1rm9NDKUFvT8yPBfM1ghOZMNP6kKUlxiE3JQwa_TgIbmmxnkJismbgNh0eR6wCMkCFwohgs_QaFS69POXtprb2kVrpXkCYzDZPvZslNiAf5R-6wzCwVwgiAWTj-cguZq5NGkY9C_6K88q86zuvJtngaYOykkRFWKWYoWurqw0YdXlRkgnFg3mHCbCnZ9U29fmKubr-0Fvtpye7zqvAPklbKQq0Ly6WrzSWnUOGAZONj-1ztrcIAK666jkkwckcvBz5XQXOpcWsLys8ysmMkJ2ryzLn88MLfDvIn28mI8mG3Ueam2guCFHl623WP2BCK97ZtQa3c1yPlpTt3BiA_L2-Sf64rTIWxnxaBu_TQNk19NC7CrPNnDnJoN138oPOfq3yHCMNvZ67XEbejZ1xWkeOWd1bM4v6jroSGMObs7sAWRr8epDxzJrnbPfX1XON72IP0kQAS8JfbRcA8Ys2tlKXjkCGUnaEqeBrpOkEPxSa7rqK1pZMLc8KSqs03XnZdkE9lRBonxmSm7q66kXUK9mgHJmtODy5AUm4kNpa233VBRvp-OD4YmOZaBmskKO-mxSighcYCtni2mB7A5AHf7aES6bUMGs_mUpFU1iCGPMAQapSql0naMSrJn19aFmKjLs7sLk2wd2isT2pf5jyOkKthps-mCNmEVSGA6M7np6cUyIdz-_8IILh-SqU2CPsvfO1YkadQ8LsHiyhkxMoA79jWoTvHizsATxaoHPT8PmaJHTSc4CgJxDx_SlmFTtrRppzNWzJSHougqBrxpFC68vLEPxugJQYg9m4sVboduM6P6fIaFMwhpp0LjLoPcMCP9jNPVDNdNSKBy1G00]--></g></svg>