<?xml version="1.0" encoding="us-ascii" standalone="no"?><svg xmlns="http://www.w3.org/2000/svg" xmlns:xlink="http://www.w3.org/1999/xlink" contentStyleType="text/css" height="685px" preserveAspectRatio="none" style="width:1029px;height:685px;background:#F5F5F5;" version="1.1" viewBox="0 0 1029 685" width="1029px" zoomAndPan="magnify"><defs><linearGradient id="guiv1tdl9224q0" x1="50%" x2="50%" y1="0%" y2="100%"><stop offset="0%" stop-color="#E0E5F0"/><stop offset="100%" stop-color="#D1D9E6"/></linearGradient><filter height="300%" id="fuiv1tdl9224q" width="300%" x="-1" y="-1"><feGaussianBlur result="blurOut" stdDeviation="2.0"/><feColorMatrix in="blurOut" result="blurOut2" type="matrix" values="0 0 0 0 0 0 0 0 0 0 0 0 0 0 0 0 0 0 .4 0"/><feOffset dx="4.0" dy="4.0" in="blurOut2" result="blurOut3"/><feBlend in="SourceGraphic" in2="blurOut3" mode="normal"/></filter></defs><g><rect fill="#F5F5F5" height="685" style="stroke:none;stroke-width:1.0;" width="1029" x="0" y="0"/><rect fill="#9FBAC4" height="658.6235" rx="5" ry="5" style="stroke:#181818;stroke-width:0.5;" width="64" x="117" y="6"/><text fill="#000000" font-family="Arial" font-size="14" font-weight="bold" lengthAdjust="spacing" textLength="4" x="120" y="19.1318">&#160;</text><text fill="#000000" font-family="Arial" font-size="14" font-weight="bold" lengthAdjust="spacing" textLength="42" x="128" y="35.2305">GDA 1</text><rect fill="#C48778" height="658.6235" rx="5" ry="5" style="stroke:#181818;stroke-width:0.5;" width="223" x="416" y="6"/><text fill="#000000" font-family="Arial" font-size="14" font-weight="bold" lengthAdjust="spacing" textLength="4" x="419" y="19.1318">&#160;</text><text fill="#000000" font-family="Arial" font-size="14" font-weight="bold" lengthAdjust="spacing" textLength="165" x="447" y="35.2305">e-Diag Fachanwendung</text><rect fill="#BEAEBE" height="658.6235" rx="5" ry="5" style="stroke:#181818;stroke-width:0.5;" width="72" x="820" y="6"/><text fill="#000000" font-family="Arial" font-size="14" font-weight="bold" lengthAdjust="spacing" textLength="4" x="823" y="19.1318">&#160;</text><text fill="#000000" font-family="Arial" font-size="14" font-weight="bold" lengthAdjust="spacing" textLength="42" x="839" y="35.2305">GDA 2</text><rect fill="#BAC38B" height="658.6235" rx="5" ry="5" style="stroke:#181818;stroke-width:0.5;" width="67" x="934" y="6"/><text fill="#000000" font-family="Arial" font-size="14" font-weight="bold" lengthAdjust="spacing" textLength="4" x="937" y="19.1318">&#160;</text><text fill="#000000" font-family="Arial" font-size="14" font-weight="bold" lengthAdjust="spacing" textLength="49" x="941" y="35.2305">Patient</text><rect fill="#FFFFFF" height="432.229" style="stroke:#181818;stroke-width:1.0;" width="10" x="144" y="128.2959"/><rect fill="#FFFFFF" height="311.9844" style="stroke:#181818;stroke-width:1.0;" width="10" x="522.5" y="248.5405"/><rect fill="none" height="248.0869" rx="5" ry="5" style="stroke:#111827;stroke-width:2.0;" width="683.5" x="115" y="320.438"/><line style="stroke:#181818;stroke-width:0.5;stroke-dasharray:5.0,5.0;" x1="149" x2="149" y1="118.2959" y2="585.5249"/><line style="stroke:#181818;stroke-width:0.5;stroke-dasharray:5.0,5.0;" x1="527.5" x2="527.5" y1="118.2959" y2="585.5249"/><line style="stroke:#181818;stroke-width:0.5;stroke-dasharray:5.0,5.0;" x1="856" x2="856" y1="118.2959" y2="585.5249"/><line style="stroke:#181818;stroke-width:0.5;stroke-dasharray:5.0,5.0;" x1="967.5" x2="967.5" y1="118.2959" y2="585.5249"/><text fill="#000000" font-family="Arial" font-size="14" lengthAdjust="spacing" textLength="42" x="125" y="115.3291">GDA 1</text><ellipse cx="149" cy="50.6973" fill="#E2E2F0" rx="8" ry="8" style="stroke:#181818;stroke-width:0.5;"/><path d="M149,58.6973 L149,85.6973 M136,66.6973 L162,66.6973 M149,85.6973 L136,100.6973 M149,85.6973 L162,100.6973 " fill="none" style="stroke:#181818;stroke-width:0.5;"/><text fill="#000000" font-family="Arial" font-size="14" lengthAdjust="spacing" textLength="42" x="125" y="597.6567">GDA 1</text><ellipse cx="149" cy="609.1235" fill="#E2E2F0" rx="8" ry="8" style="stroke:#181818;stroke-width:0.5;"/><path d="M149,617.1235 L149,644.1235 M136,625.1235 L162,625.1235 M149,644.1235 L136,659.1235 M149,644.1235 L162,659.1235 " fill="none" style="stroke:#181818;stroke-width:0.5;"/><rect fill="#FFFFFF" height="30.0986" rx="5" ry="5" style="stroke:#555555;stroke-width:0.5;" width="76" x="489.5" y="87.1973"/><text fill="#000000" font-family="Arial" font-size="14" lengthAdjust="spacing" textLength="62" x="496.5" y="107.3291">e-Med FA</text><rect fill="#FFFFFF" height="30.0986" rx="5" ry="5" style="stroke:#555555;stroke-width:0.5;" width="76" x="489.5" y="584.5249"/><text fill="#000000" font-family="Arial" font-size="14" lengthAdjust="spacing" textLength="62" x="496.5" y="604.6567">e-Med FA</text><text fill="#000000" font-family="Arial" font-size="14" lengthAdjust="spacing" textLength="42" x="832" y="115.3291">GDA 2</text><ellipse cx="856" cy="50.6973" fill="#E2E2F0" rx="8" ry="8" style="stroke:#181818;stroke-width:0.5;"/><path d="M856,58.6973 L856,85.6973 M843,66.6973 L869,66.6973 M856,85.6973 L843,100.6973 M856,85.6973 L869,100.6973 " fill="none" style="stroke:#181818;stroke-width:0.5;"/><text fill="#000000" font-family="Arial" font-size="14" lengthAdjust="spacing" textLength="42" x="832" y="597.6567">GDA 2</text><ellipse cx="856" cy="609.1235" fill="#E2E2F0" rx="8" ry="8" style="stroke:#181818;stroke-width:0.5;"/><path d="M856,617.1235 L856,644.1235 M843,625.1235 L869,625.1235 M856,644.1235 L843,659.1235 M856,644.1235 L869,659.1235 " fill="none" style="stroke:#181818;stroke-width:0.5;"/><text fill="#000000" font-family="Arial" font-size="14" lengthAdjust="spacing" textLength="44" x="942.5" y="115.3291">Patient</text><ellipse cx="967.5" cy="50.6973" fill="#E2E2F0" rx="8" ry="8" style="stroke:#181818;stroke-width:0.5;"/><path d="M967.5,58.6973 L967.5,85.6973 M954.5,66.6973 L980.5,66.6973 M967.5,85.6973 L954.5,100.6973 M967.5,85.6973 L980.5,100.6973 " fill="none" style="stroke:#181818;stroke-width:0.5;"/><text fill="#000000" font-family="Arial" font-size="14" lengthAdjust="spacing" textLength="44" x="942.5" y="597.6567">Patient</text><ellipse cx="967.5" cy="609.1235" fill="#E2E2F0" rx="8" ry="8" style="stroke:#181818;stroke-width:0.5;"/><path d="M967.5,617.1235 L967.5,644.1235 M954.5,625.1235 L980.5,625.1235 M967.5,644.1235 L954.5,659.1235 M967.5,644.1235 L980.5,659.1235 " fill="none" style="stroke:#181818;stroke-width:0.5;"/><rect fill="#FFFFFF" height="432.229" style="stroke:#181818;stroke-width:1.0;" width="10" x="144" y="128.2959"/><rect fill="#FFFFFF" height="311.9844" style="stroke:#181818;stroke-width:1.0;" width="10" x="522.5" y="248.5405"/><path d="M5,138.2959 L5,170.2959 A5,5 0 0 0 10,175.2959 L285,175.2959 A5,5 0 0 0 290,170.2959 L290,143.2959 L280,133.2959 L10,133.2959 A5,5 0 0 0 5,138.2959 " fill="url(#guiv1tdl9224q0)" filter="url(#fuiv1tdl9224q)" style="stroke:#8B95A5;stroke-width:1.0;"/><path d="M280,133.2959 L280,140.7959 A2.5,2.5 0 0 0 282.5,143.2959 L290,143.2959 L280,133.2959 " fill="url(#guiv1tdl9224q0)" style="stroke:#8B95A5;stroke-width:1.0;"/><text fill="#111827" font-family="Arial" font-size="14" lengthAdjust="spacing" textLength="264" x="11" y="151.4277">Vorbedingung: Nach einem Read-to-Write</text><text fill="#111827" font-family="Arial" font-size="14" lengthAdjust="spacing" textLength="225" x="11" y="167.5264">wurde der Medikationsplan bearbeit</text><rect fill="#EEEEEE" height="3" rx="5" ry="5" style="stroke:#EEEEEE;stroke-width:1.0;" width="1022" x="0" y="204.5425"/><line style="stroke:#000000;stroke-width:1.0;" x1="0" x2="1022" y1="204.5425" y2="204.5425"/><line style="stroke:#000000;stroke-width:1.0;" x1="0" x2="1022" y1="207.5425" y2="207.5425"/><rect fill="#EEEEEE" height="24.0986" rx="5" ry="5" style="stroke:#000000;stroke-width:2.0;" width="55" x="483.5" y="193.4932"/><text fill="#000000" font-family="Arial" font-size="14" font-weight="bold" lengthAdjust="spacing" textLength="37" x="489.5" y="210.625">Write</text><line style="stroke:#111827;stroke-width:1.0;" x1="520.5" x2="510.5" y1="248.5405" y2="244.5405"/><line style="stroke:#111827;stroke-width:1.0;" x1="520.5" x2="510.5" y1="248.5405" y2="252.5405"/><line style="stroke:#111827;stroke-width:1.0;" x1="154" x2="521.5" y1="248.5405" y2="248.5405"/><text fill="#000000" font-family="Arial" font-size="13" font-weight="bold" lengthAdjust="spacing" textLength="7" x="161" y="243.7856">1</text><text fill="#000000" font-family="Arial" font-size="13" lengthAdjust="spacing" textLength="285" x="172" y="243.7856">POST $write (Transaction Bundle + List.identifier)</text><line style="stroke:#111827;stroke-width:1.0;" x1="532.5" x2="574.5" y1="292.438" y2="292.438"/><line style="stroke:#111827;stroke-width:1.0;" x1="574.5" x2="574.5" y1="292.438" y2="305.438"/><line style="stroke:#111827;stroke-width:1.0;" x1="533.5" x2="574.5" y1="305.438" y2="305.438"/><polygon fill="#111827" points="543.5,301.438,533.5,305.438,543.5,309.438,539.5,305.438" style="stroke:#111827;stroke-width:1.0;"/><text fill="#000000" font-family="Arial" font-size="13" font-weight="bold" lengthAdjust="spacing" textLength="7" x="539.5" y="280.2087">2</text><text fill="#000000" font-family="Arial" font-size="13" lengthAdjust="spacing" textLength="222" x="550.5" y="272.7344">List.identifier im TransactionBundle ==</text><text fill="#000000" font-family="Arial" font-size="13" lengthAdjust="spacing" textLength="217" x="550.5" y="287.6831">tempor&#228;r gespeicherter List.identifier?</text><path d="M120,320.438 L177,320.438 L177,328.5366 L167,338.5366 L115,338.5366 L115,325.438 A5,5 0 0 1 120,320.438 " fill="#EEF2FF" style="stroke:#111827;stroke-width:1.5;"/><rect fill="none" height="248.0869" rx="5" ry="5" style="stroke:#111827;stroke-width:2.0;" width="683.5" x="115" y="320.438"/><text fill="#000000" font-family="Arial" font-size="14" font-weight="bold" lengthAdjust="spacing" textLength="17" x="130" y="334.5698">alt</text><text fill="#000000" font-family="Arial" font-size="14" font-weight="bold" lengthAdjust="spacing" textLength="68" x="192" y="335.5698">[ung&#252;ltig]</text><line style="stroke:#111827;stroke-width:1.0;" x1="532.5" x2="574.5" y1="375.5327" y2="375.5327"/><line style="stroke:#111827;stroke-width:1.0;" x1="574.5" x2="574.5" y1="375.5327" y2="388.5327"/><line style="stroke:#111827;stroke-width:1.0;" x1="533.5" x2="574.5" y1="388.5327" y2="388.5327"/><polygon fill="#111827" points="543.5,384.5327,533.5,388.5327,543.5,392.5327,539.5,388.5327" style="stroke:#111827;stroke-width:1.0;"/><text fill="#000000" font-family="Arial" font-size="13" font-weight="bold" lengthAdjust="spacing" textLength="7" x="539.5" y="363.3035">3</text><text fill="#000000" font-family="Arial" font-size="13" lengthAdjust="spacing" textLength="165" x="550.5" y="355.8291">Validierung des neuen Plans</text><text fill="#000000" font-family="Arial" font-size="13" lengthAdjust="spacing" textLength="236" x="550.5" y="370.7778">(keine unzul&#228;ssigen Zustands&#252;berg&#228;nge)</text><line style="stroke:#111827;stroke-width:1.0;" x1="155" x2="165" y1="417.4814" y2="413.4814"/><line style="stroke:#111827;stroke-width:1.0;" x1="155" x2="165" y1="417.4814" y2="421.4814"/><line style="stroke:#111827;stroke-width:1.0;stroke-dasharray:2.0,2.0;" x1="154" x2="521.5" y1="417.4814" y2="417.4814"/><text fill="#000000" font-family="Arial" font-size="13" font-weight="bold" lengthAdjust="spacing" textLength="7" x="171" y="412.7266">4</text><text fill="#000000" font-family="Arial" font-size="13" lengthAdjust="spacing" textLength="36" x="182" y="412.7266">Fehler</text><line style="stroke:#111827;stroke-width:1.0;stroke-dasharray:2.0,2.0;" x1="115" x2="798.5" y1="426.4814" y2="426.4814"/><text fill="#000000" font-family="Arial" font-size="14" font-weight="bold" lengthAdjust="spacing" textLength="50" x="120" y="439.6133">[g&#252;ltig]</text><line style="stroke:#111827;stroke-width:1.0;" x1="532.5" x2="574.5" y1="479.4775" y2="479.4775"/><line style="stroke:#111827;stroke-width:1.0;" x1="574.5" x2="574.5" y1="479.4775" y2="492.4775"/><line style="stroke:#111827;stroke-width:1.0;" x1="533.5" x2="574.5" y1="492.4775" y2="492.4775"/><polygon fill="#111827" points="543.5,488.4775,533.5,492.4775,543.5,496.4775,539.5,492.4775" style="stroke:#111827;stroke-width:1.0;"/><text fill="#000000" font-family="Arial" font-size="13" font-weight="bold" lengthAdjust="spacing" textLength="7" x="539.5" y="467.2483">5</text><text fill="#000000" font-family="Arial" font-size="13" lengthAdjust="spacing" textLength="164" x="550.5" y="459.7739">Persistiert neue Version des</text><text fill="#000000" font-family="Arial" font-size="13" lengthAdjust="spacing" textLength="101" x="550.5" y="474.7227">Medikationsplans</text><path d="M404,510.4775 L404,526.4775 A5,5 0 0 0 409,531.4775 L642,531.4775 A5,5 0 0 0 647,526.4775 L647,515.4775 L637,505.4775 L409,505.4775 A5,5 0 0 0 404,510.4775 " fill="url(#guiv1tdl9224q0)" filter="url(#fuiv1tdl9224q)" style="stroke:#8B95A5;stroke-width:1.0;"/><path d="M637,505.4775 L637,512.9775 A2.5,2.5 0 0 0 639.5,515.4775 L647,515.4775 L637,505.4775 " fill="url(#guiv1tdl9224q0)" style="stroke:#8B95A5;stroke-width:1.0;"/><text fill="#111827" font-family="Arial" font-size="14" lengthAdjust="spacing" textLength="222" x="410" y="523.6094">Neuer Medikationsplan gespeichert</text><line style="stroke:#111827;stroke-width:1.0;" x1="150" x2="160" y1="560.5249" y2="556.5249"/><line style="stroke:#111827;stroke-width:1.0;" x1="150" x2="160" y1="560.5249" y2="564.5249"/><line style="stroke:#111827;stroke-width:1.0;stroke-dasharray:2.0,2.0;" x1="149" x2="526.5" y1="560.5249" y2="560.5249"/><text fill="#000000" font-family="Arial" font-size="13" font-weight="bold" lengthAdjust="spacing" textLength="7" x="166" y="555.77">6</text><text fill="#000000" font-family="Arial" font-size="13" lengthAdjust="spacing" textLength="19" x="177" y="555.77">OK</text><text fill="#000000" font-family="Arial" font-size="10" lengthAdjust="spacing" textLength="57" x="482" y="675.0034">Write-Zugriff</text><!--SRC=[XLJRJXin47ttLun27wYgL6mW9I25AbpIIcqX0aebX8ISzMHZPMEdjfTGgluDdy5RVgnZ9soyIQgQ1pPpENFcpDXs9DM46pw6lZO2pOdEjO6jdN2ONNfvEigCBfHOH0oQ_Y-Ai4Ckz5Ig30OyjnXv5cb6eO4a1XKuu4NkkbgvSpv6g7MCv7bjSyILV498zZOxgxIZ6AKTmcy6SBpQ0EvWSx1JtnA9EC0FFY8MeDK_QF9cQRqUodIaq5f8o7OPDTIYtpqkX6_SeqHiaYHfDVR9TbLAuqo1x4zCyFEl2PfSgb7KmjdPfe3lIeGFN0WSQuy_2rJflDCUDqwcSiALgxJK36SbO6siuLI3rWLUSxyEf-9ubQNX4ph6wEcgCC5OrJQODbKi7VDQksJwHCmdbHvBvBbhRUOuQ8Jkeinb-KPrCiVwCUgWOj-aA-lhHwZTAG8_xK02K8EjWm7T6wyAJns5akC-0MwX5a9g39MWU_SOvOQ3zLF9C-ZoTCZLb88AuX0EOPxijVRt_TPDbae3-eJxRYU0O_qR2kXsDkFxqes0r4UEVQomQvJi6XkoUzn9f6eXcQUxhNwP_EhowOll283nmcbLZFjew3jrye7JjGnoC1Qkg7x0XJxiHfi-UjcfwqCu9n40QUl7S8bSr9sk_p3I8PiMD0Dw0mnGjt94DRMoavmheBu8GRfGtwCprcv3o89scx7v6Ef7HwLiXz2xkBg6DzCGitrjkBAUfbPmJDkJ8xo3hzAwzr9GOt8WqRoD6dc5OUKOwZ7sIYR8CKGL5WNQxJlbS3pHPlPi84CxGPaEqJXAM07uIALp1oJFx2LtCWEQmkRADpoNWZBy_WYqe92U2UYHIFPERO-yh0JpLEIpPsjbHhxRmZgkX9szqAoosRFAy6q5tiiM13o4BWvpOaTkXlGWmN_fzD1OQeK8kK05Rho1H2PkTsfbZ9OHpd8tIeq1pYbrVUgHP9v0EVf_aB_uGXw1AyjOCIt7gWHZASbFPGTQ-tzXc-gtHMOaFIZiBm00]--></g></svg>