<svg xmlns="http://www.w3.org/2000/svg" xmlns:xlink="http://www.w3.org/1999/xlink" version="1.1" data-diagram-type="SEQUENCE" style="width:602px;height:701px;background:#F5F5F5;" width="602px" height="701px" viewBox="0 0 602 701" zoomAndPan="magnify" preserveAspectRatio="none" contentStyleType="text/css"><?plantuml 1.2026.7beta3?><defs><linearGradient x1="50%" y1="0%" x2="50%" y2="100%" id="g1mz5j3z4y6tw30"><stop stop-color="#E0E5F0" offset="0%"/><stop stop-color="#D1D9E6" offset="100%"/></linearGradient></defs><g><rect x="0" y="0" width="602" height="701" fill="#F5F5F5" style="stroke:none;stroke-width:1;"/><g class="title" data-source-line="1"><text x="77.9424" y="27.9951" fill="#000000" font-size="14" lengthAdjust="spacing" textLength="439.4072" font-weight="700" font-family="'Arial'">Reihenfolge von Einträgen innerhalb einer Liste ändern</text></g><g><title>GDA 1</title><rect x="197.2817" y="128.5938" width="10" height="481.5859" fill="#0078D4" fill-opacity="0.37647" style="stroke:#181818;stroke-width:1;"/></g><g class="participant-lifeline" data-qualified-name="GDA_1" data-entity-uid="part1" id="part1-lifeline" data-source-line="50"><g><title>GDA 1</title><rect x="198.2817" y="118.5938" width="8" height="500.5859" fill="#000000" fill-opacity="0.00000"/><line x1="202" y1="118.5938" x2="202" y2="619.1797" style="stroke:#181818;stroke-width:0.5;stroke-dasharray:5,5;"/></g></g><g class="participant-lifeline" data-qualified-name="eDiag_FA" data-entity-uid="part2" id="part2-lifeline" data-source-line="51"><g><title>e-Diagnose Fachanwendung</title><rect x="454.5396" y="118.5938" width="8" height="500.5859" fill="#000000" fill-opacity="0.00000"/><line x1="458.186" y1="118.5938" x2="458.186" y2="619.1797" style="stroke:#181818;stroke-width:0.5;stroke-dasharray:5,5;"/></g></g><g class="participant participant-head" data-qualified-name="GDA_1" data-entity-uid="part1" id="part1-head" data-source-line="50"><text x="177" y="115.292" fill="#000000" font-size="14" lengthAdjust="spacing" textLength="44.5635" font-family="'Arial'">GDA 1</text><ellipse cx="202.2817" cy="50.7969" rx="8" ry="8" fill="#0078D4" fill-opacity="0.37647" style="stroke:#181818;stroke-width:0.5;"/><path d="M202.2817,58.7969 L202.2817,85.7969 M189.2817,66.7969 L215.2817,66.7969 M202.2817,85.7969 L189.2817,100.7969 M202.2817,85.7969 L215.2817,100.7969" style="stroke:#181818;stroke-width:0.5;" fill="none"/></g><g class="participant participant-tail" data-qualified-name="GDA_1" data-entity-uid="part1" id="part1-tail" data-source-line="50"><text x="177" y="631.1748" fill="#000000" font-size="14" lengthAdjust="spacing" textLength="44.5635" font-family="'Arial'">GDA 1</text><ellipse cx="202.2817" cy="642.9766" rx="8" ry="8" fill="#0078D4" fill-opacity="0.37647" style="stroke:#181818;stroke-width:0.5;"/><path d="M202.2817,650.9766 L202.2817,677.9766 M189.2817,658.9766 L215.2817,658.9766 M202.2817,677.9766 L189.2817,692.9766 M202.2817,677.9766 L215.2817,692.9766" style="stroke:#181818;stroke-width:0.5;" fill="none"/></g><g class="participant participant-head" data-qualified-name="eDiag_FA" data-entity-uid="part2" id="part2-head" data-source-line="51"><rect x="352.186" y="87.2969" width="212.707" height="30.2969" fill="#F5A403" fill-opacity="0.37647" style="stroke:#555555;stroke-width:0.5;" rx="5" ry="5"/><text x="359.186" y="107.292" fill="#000000" font-size="14" lengthAdjust="spacing" textLength="198.707" font-family="'Arial'">e-Diagnose Fachanwendung</text></g><g class="participant participant-tail" data-qualified-name="eDiag_FA" data-entity-uid="part2" id="part2-tail" data-source-line="51"><rect x="352.186" y="618.1797" width="212.707" height="30.2969" fill="#F5A403" fill-opacity="0.37647" style="stroke:#555555;stroke-width:0.5;" rx="5" ry="5"/><text x="359.186" y="638.1748" fill="#000000" font-size="14" lengthAdjust="spacing" textLength="198.707" font-family="'Arial'">e-Diagnose Fachanwendung</text></g><g><title>GDA 1</title><rect x="197.2817" y="128.5938" width="10" height="481.5859" fill="#0078D4" fill-opacity="0.37647" style="stroke:#181818;stroke-width:1;"/></g><rect x="0" y="149.7422" width="596.292" height="3" fill="#EEEEEE" style="stroke:#EEEEEE;stroke-width:1;" rx="5" ry="5"/><line x1="0" y1="149.7422" x2="596.292" y2="149.7422" style="stroke:#000000;stroke-width:1;"/><line x1="0" y1="152.7422" x2="596.292" y2="152.7422" style="stroke:#000000;stroke-width:1;"/><rect x="236.2056" y="138.5938" width="123.8809" height="24.2969" fill="#EEEEEE" style="stroke:#000000;stroke-width:2;" rx="5" ry="5"/><text x="242.2056" y="155.5889" fill="#000000" font-size="14" lengthAdjust="spacing" textLength="105.0068" font-weight="700" font-family="'Arial'">Liste abrufen</text><rect x="174" y="172.8906" width="393.8931" height="42.5938" fill="none" style="stroke:#000000;stroke-width:1.5;" rx="5" ry="5"/><path d="M179,172.8906 L241,172.8906 L241,180.8906 L231,190.8906 L174,190.8906 L174,177.8906 A5,5 0 0 1 179,172.8906" style="stroke:#000000;stroke-width:2;" fill="#EEEEEE"/><text x="187" y="187.8857" fill="#000000" font-size="14" lengthAdjust="spacing" textLength="22.4902" font-weight="700" font-family="'Arial'">ref</text><text x="337.7683" y="207.8857" fill="#000000" font-size="14" lengthAdjust="spacing" textLength="66.3564" font-family="'Arial'">$list-read</text><path d="M91,230.4844 L91,262.4844 A5,5 0 0 0 96,267.4844 L307,267.4844 A5,5 0 0 0 312,262.4844 L312,235.4844 L302,225.4844 L96,225.4844 A5,5 0 0 0 91,230.4844" style="stroke:#8B95A5;stroke-width:1;" fill="url(#g1mz5j3z4y6tw30)"/><path d="M302,225.4844 L302,232.9844 A2.5,2.5 0 0 0 304.5,235.4844 L312,235.4844 L302,225.4844" style="stroke:#8B95A5;stroke-width:1;" fill="url(#g1mz5j3z4y6tw30)"/><text x="97" y="243.4795" fill="#111827" font-size="14" lengthAdjust="spacing" textLength="200.7373" font-family="'Arial'">GDA erhält die aktuelle Liste</text><text x="97" y="259.7764" fill="#111827" font-size="14" lengthAdjust="spacing" textLength="144.416" font-family="'Arial'">im Collection Bundle</text><rect x="0" y="294.2266" width="596.292" height="3" fill="#EEEEEE" style="stroke:#EEEEEE;stroke-width:1;" rx="5" ry="5"/><line x1="0" y1="294.2266" x2="596.292" y2="294.2266" style="stroke:#000000;stroke-width:1;"/><line x1="0" y1="297.2266" x2="596.292" y2="297.2266" style="stroke:#000000;stroke-width:1;"/><rect x="159.5781" y="283.0781" width="277.1357" height="24.2969" fill="#EEEEEE" style="stroke:#000000;stroke-width:2;" rx="5" ry="5"/><text x="165.5781" y="300.0732" fill="#000000" font-size="14" lengthAdjust="spacing" textLength="258.2617" font-weight="700" font-family="'Arial'">Reihenfolge der Einträge ändern</text><path d="M24,327.375 L24,359.375 A5,5 0 0 0 29,364.375 L374,364.375 A5,5 0 0 0 379,359.375 L379,332.375 L369,322.375 L29,322.375 A5,5 0 0 0 24,327.375" style="stroke:#8B95A5;stroke-width:1;" fill="url(#g1mz5j3z4y6tw30)"/><path d="M369,322.375 L369,329.875 A2.5,2.5 0 0 0 371.5,332.375 L379,332.375 L369,322.375" style="stroke:#8B95A5;stroke-width:1;" fill="url(#g1mz5j3z4y6tw30)"/><text x="30" y="340.3701" fill="#111827" font-size="14" lengthAdjust="spacing" textLength="327.8379" font-family="'Arial'">Der GDA ändert ausschließlich die Reihenfolge</text><text x="30" y="356.667" fill="#111827" font-size="14" lengthAdjust="spacing" textLength="334.9336" font-family="'Arial'">der Listeneinträge (keine Ressourcenänderung)</text><g class="message" data-entity-1="part1" data-entity-2="part1" id="msg1" data-source-line="73"><line x1="207.2817" y1="391.1016" x2="249.2817" y2="391.1016" style="stroke:#111827;stroke-width:1;"/><line x1="249.2817" y1="391.1016" x2="249.2817" y2="404.1016" style="stroke:#111827;stroke-width:1;"/><line x1="208.2817" y1="404.1016" x2="249.2817" y2="404.1016" style="stroke:#111827;stroke-width:1;"/><polygon points="218.2817,400.1016,208.2817,404.1016,218.2817,408.1016,214.2817,404.1016" fill="#111827" style="stroke:#111827;stroke-width:1;stroke-linejoin:miter;stroke-miterlimit:10;"/><text x="214.2817" y="386.0356" fill="#000000" font-size="13" lengthAdjust="spacing" textLength="9.0454" font-weight="700" font-family="'Arial'">1</text><text x="227.3271" y="386.0356" fill="#000000" font-size="13" lengthAdjust="spacing" textLength="209.2124" font-family="'Arial'">List.entry Reihenfolge anpassen</text></g><rect x="0" y="433.25" width="596.292" height="3" fill="#EEEEEE" style="stroke:#EEEEEE;stroke-width:1;" rx="5" ry="5"/><line x1="0" y1="433.25" x2="596.292" y2="433.25" style="stroke:#000000;stroke-width:1;"/><line x1="0" y1="436.25" x2="596.292" y2="436.25" style="stroke:#000000;stroke-width:1;"/><rect x="148.7397" y="422.1016" width="298.8125" height="24.2969" fill="#EEEEEE" style="stroke:#000000;stroke-width:2;" rx="5" ry="5"/><text x="154.7397" y="439.0967" fill="#000000" font-size="14" lengthAdjust="spacing" textLength="279.9385" font-weight="700" font-family="'Arial'">Persistieren der neuen Reihenfolge</text><path d="M5,466.3984 L5,498.3984 A5,5 0 0 0 10,503.3984 L395,503.3984 A5,5 0 0 0 400,498.3984 L400,471.3984 L390,461.3984 L10,461.3984 A5,5 0 0 0 5,466.3984" style="stroke:#8B95A5;stroke-width:1;" fill="url(#g1mz5j3z4y6tw30)"/><path d="M390,461.3984 L390,468.8984 A2.5,2.5 0 0 0 392.5,471.3984 L400,471.3984 L390,461.3984" style="stroke:#8B95A5;stroke-width:1;" fill="url(#g1mz5j3z4y6tw30)"/><text x="11" y="479.3936" fill="#111827" font-size="14" lengthAdjust="spacing" textLength="374.1172" font-family="'Arial'">Unveränderte Ressourcen werden NICHT übertragen,</text><text x="11" y="495.6904" fill="#111827" font-size="14" lengthAdjust="spacing" textLength="278.4824" font-family="'Arial'">sondern nur über List.entry referenziert</text><rect x="174" y="508.9922" width="393.8931" height="42.5938" fill="none" style="stroke:#000000;stroke-width:1.5;" rx="5" ry="5"/><path d="M179,508.9922 L241,508.9922 L241,516.9922 L231,526.9922 L174,526.9922 L174,513.9922 A5,5 0 0 1 179,508.9922" style="stroke:#000000;stroke-width:2;" fill="#EEEEEE"/><text x="187" y="523.9873" fill="#000000" font-size="14" lengthAdjust="spacing" textLength="22.4902" font-weight="700" font-family="'Arial'">ref</text><text x="336.0867" y="543.9873" fill="#000000" font-size="14" lengthAdjust="spacing" textLength="69.7197" font-family="'Arial'">$list-write</text><path d="M324,566.5859 L324,598.5859 A5,5 0 0 0 329,603.5859 L586,603.5859 A5,5 0 0 0 591,598.5859 L591,571.5859 L581,561.5859 L329,561.5859 A5,5 0 0 0 324,566.5859" style="stroke:#8B95A5;stroke-width:1;" fill="url(#g1mz5j3z4y6tw30)"/><path d="M581,561.5859 L581,569.0859 A2.5,2.5 0 0 0 583.5,571.5859 L591,571.5859 L581,561.5859" style="stroke:#8B95A5;stroke-width:1;" fill="url(#g1mz5j3z4y6tw30)"/><text x="330" y="579.5811" fill="#111827" font-size="14" lengthAdjust="spacing" textLength="246.292" font-family="'Arial'">Reihenfolge erfolgreich aktualisiert</text><text x="330" y="595.8779" fill="#111827" font-size="14" lengthAdjust="spacing" textLength="197.0869" font-family="'Arial'">Liste konsistent gespeichert</text><?plantuml-src XLNDRjf04BxxAQQaXrPgAfjW89LIYH-JHAq2elJIIxJO0wnmTkck7VgZFailUOpUUB7EharOOwek1zOpdsU--MPtdF4iHPWYNw5Oo7I9y2W5H5naQlUqH05S25Ghbiu1EUtW8zSPmkv99AY4v-ar5nkcs0FCfIBJGAPImPblb-jbyNgfP2wI4h48pSz1w1LBv9QB9InOgj7nbAyfapvmWoQuO7cQZQJ8xjW3GgEdE4iRfn6V-0-4e7NQ-I_QDzytg58krWuWYau1FXj1Q8Cr-dtvRSAIn5JMzAlslgjPQ9ShgP0azKyFe7-i7leOBlppioH8Bh5j46waxlmoPE6pTRRYyLgWrX2GRUgewTFpdfk9uaWH146tsI7RfwE-_78PQloQeuWBbXEcCXxp3HFPgSAgWDfviAiAgdUcvjvtjU9mv0ReAIMtnqLPOrKNQpgLyTbHvBeWqpKntrHgV8vSk6hzmaNJLkUyUKZVDAA-eEDeZizW_74ylRyUzku3e4KyEjrXg-sV03GjeDjfj_hT6c3Iczr6TpCRuJBqmngWDna3b2dwdS553J2yxLtVZtfWBYjh-NL0T3-DlaIJ6Pn5dLOtR1FW237-06MEq8_Qer4pF0undOwd5Z0QTGU-Vq4NWCKPQLOem3GqQ0T1mnN6snoQ3JZaR6bu6YoUcoSXDSA8nIicjYYIN2mRrPeeIPv9aJ_CKNdUrLKvrjXSvGiQUbTNbWL_P6GiYBZPFOKBa8zOadnpeF0ENgOKwLmXIppFtjy3pZE5q33TFQKP99pIhRCSKvg_Dhl77u2EIugKc6PmdqvFYXxHjtF0idJdD9sWmvpU3sJB_3ZjiDYLc0nOhdMyIZdkVgSyNbagJcGlsOzvWS_nNwtD-2UOrZ9NCOeY62dxsg5OI7N-ljJidGtp5Yd8zmftHkD3QnIsg0agJJ2EYfGtkGNIJAdWJrNrMT2-BCab1bkasoNWxdPmCuFT7-fmfXXzojvuMXOYYLmL3fSVzTGm-44yCgUa_xPwgxZ17UZj4PvR0Ihphz3eRThEw5sRgJXuQocqLJo39UgDWRaq_W80?></g></svg>