<?xml version="1.0" encoding="us-ascii" standalone="no"?><svg xmlns="http://www.w3.org/2000/svg" xmlns:xlink="http://www.w3.org/1999/xlink" contentStyleType="text/css" height="567px" preserveAspectRatio="none" style="width:624px;height:567px;background:#F5F5F5;" version="1.1" viewBox="0 0 624 567" width="624px" zoomAndPan="magnify"><defs><linearGradient id="goa2z8b61ptun0" x1="50%" x2="50%" y1="0%" y2="100%"><stop offset="0%" stop-color="#E0E5F0"/><stop offset="100%" stop-color="#D1D9E6"/></linearGradient></defs><g><rect fill="#F5F5F5" height="567" style="stroke:none;stroke-width:1.0;" width="624" x="0" y="0"/><text fill="#000000" font-family="Arial" font-size="14" font-weight="bold" lengthAdjust="spacing" textLength="120" x="248" y="28.1318">List-History-Read</text><rect fill="#9FBAC4" height="518.8286" rx="5" ry="5" style="stroke:#181818;stroke-width:0.5;" width="64" x="58" y="43.0986"/><text fill="#000000" font-family="Arial" font-size="14" font-weight="bold" lengthAdjust="spacing" textLength="4" x="61" y="56.2305">&#160;</text><text fill="#000000" font-family="Arial" font-size="14" font-weight="bold" lengthAdjust="spacing" textLength="42" x="69" y="72.3291">GDA 1</text><rect fill="#C48778" height="518.8286" rx="5" ry="5" style="stroke:#181818;stroke-width:0.5;" width="258" x="266.5" y="43.0986"/><text fill="#000000" font-family="Arial" font-size="14" font-weight="bold" lengthAdjust="spacing" textLength="4" x="269.5" y="56.2305">&#160;</text><text fill="#000000" font-family="Arial" font-size="14" font-weight="bold" lengthAdjust="spacing" textLength="200" x="297.5" y="72.3291">e-Diagnose Fachanwendung</text><rect fill="#FFFFFF" height="224.1382" style="stroke:#181818;stroke-width:1.0;" width="10" x="85" y="165.3945"/><rect fill="#FFFFFF" height="159.0908" style="stroke:#181818;stroke-width:1.0;" width="10" x="390.5" y="230.4419"/><rect fill="none" height="95.1934" rx="5" ry="5" style="stroke:#111827;stroke-width:2.0;" width="424" x="56" y="302.3394"/><line style="stroke:#181818;stroke-width:0.5;stroke-dasharray:5.0,5.0;" x1="90" x2="90" y1="155.3945" y2="482.8286"/><line style="stroke:#181818;stroke-width:0.5;stroke-dasharray:5.0,5.0;" x1="395" x2="395" y1="155.3945" y2="482.8286"/><text fill="#000000" font-family="Arial" font-size="14" lengthAdjust="spacing" textLength="42" x="66" y="152.4277">GDA 1</text><ellipse cx="90" cy="87.7959" fill="#E2E2F0" rx="8" ry="8" style="stroke:#181818;stroke-width:0.5;"/><path d="M90,95.7959 L90,122.7959 M77,103.7959 L103,103.7959 M90,122.7959 L77,137.7959 M90,122.7959 L103,137.7959 " fill="none" style="stroke:#181818;stroke-width:0.5;"/><text fill="#000000" font-family="Arial" font-size="14" lengthAdjust="spacing" textLength="42" x="66" y="494.9604">GDA 1</text><ellipse cx="90" cy="506.4272" fill="#E2E2F0" rx="8" ry="8" style="stroke:#181818;stroke-width:0.5;"/><path d="M90,514.4272 L90,541.4272 M77,522.4272 L103,522.4272 M90,541.4272 L77,556.4272 M90,541.4272 L103,556.4272 " fill="none" style="stroke:#181818;stroke-width:0.5;"/><rect fill="#FFFFFF" height="30.0986" rx="5" ry="5" style="stroke:#555555;stroke-width:0.5;" width="109" x="341" y="124.2959"/><text fill="#000000" font-family="Arial" font-size="14" lengthAdjust="spacing" textLength="95" x="348" y="144.4277">e-Diagnose FA</text><rect fill="#FFFFFF" height="30.0986" rx="5" ry="5" style="stroke:#555555;stroke-width:0.5;" width="109" x="341" y="481.8286"/><text fill="#000000" font-family="Arial" font-size="14" lengthAdjust="spacing" textLength="95" x="348" y="501.9604">e-Diagnose FA</text><rect fill="#FFFFFF" height="224.1382" style="stroke:#181818;stroke-width:1.0;" width="10" x="85" y="165.3945"/><rect fill="#FFFFFF" height="159.0908" style="stroke:#181818;stroke-width:1.0;" width="10" x="390.5" y="230.4419"/><rect fill="#EEEEEE" height="3" rx="5" ry="5" style="stroke:#EEEEEE;stroke-width:1.0;" width="617" x="0" y="186.4438"/><line style="stroke:#000000;stroke-width:1.0;" x1="0" x2="617" y1="186.4438" y2="186.4438"/><line style="stroke:#000000;stroke-width:1.0;" x1="0" x2="617" y1="189.4438" y2="189.4438"/><rect fill="#EEEEEE" height="24.0986" rx="5" ry="5" style="stroke:#000000;stroke-width:2.0;" width="95" x="261" y="175.3945"/><text fill="#000000" font-family="Arial" font-size="14" font-weight="bold" lengthAdjust="spacing" textLength="77" x="267" y="192.5264">Liste lesen</text><polygon fill="#111827" points="378.5,226.4419,388.5,230.4419,378.5,234.4419,382.5,230.4419" style="stroke:#111827;stroke-width:1.0;"/><line style="stroke:#111827;stroke-width:1.0;" x1="95" x2="384.5" y1="230.4419" y2="230.4419"/><text fill="#000000" font-family="Arial" font-size="13" font-weight="bold" lengthAdjust="spacing" textLength="7" x="102" y="225.687">1</text><text fill="#000000" font-family="Arial" font-size="13" lengthAdjust="spacing" textLength="96" x="113" y="225.687">GET /Bundle/[id]</text><line style="stroke:#111827;stroke-width:1.0;" x1="400.5" x2="442.5" y1="274.3394" y2="274.3394"/><line style="stroke:#111827;stroke-width:1.0;" x1="442.5" x2="442.5" y1="274.3394" y2="287.3394"/><line style="stroke:#111827;stroke-width:1.0;" x1="401.5" x2="442.5" y1="287.3394" y2="287.3394"/><polygon fill="#111827" points="411.5,283.3394,401.5,287.3394,411.5,291.3394,407.5,287.3394" style="stroke:#111827;stroke-width:1.0;"/><text fill="#000000" font-family="Arial" font-size="13" font-weight="bold" lengthAdjust="spacing" textLength="7" x="407.5" y="262.1101">2</text><text fill="#000000" font-family="Arial" font-size="13" lengthAdjust="spacing" textLength="136" x="418.5" y="254.6357">Pr&#252;fung auf bestehende</text><text fill="#000000" font-family="Arial" font-size="13" lengthAdjust="spacing" textLength="39" x="418.5" y="269.5845">Liste/n</text><path d="M61,302.3394 L118,302.3394 L118,310.438 L108,320.438 L56,320.438 L56,307.3394 A5,5 0 0 1 61,302.3394 " fill="#EEF2FF" style="stroke:#111827;stroke-width:1.5;"/><rect fill="none" height="95.1934" rx="5" ry="5" style="stroke:#111827;stroke-width:2.0;" width="424" x="56" y="302.3394"/><text fill="#000000" font-family="Arial" font-size="14" font-weight="bold" lengthAdjust="spacing" textLength="17" x="71" y="316.4712">alt</text><text fill="#000000" font-family="Arial" font-size="14" font-weight="bold" lengthAdjust="spacing" textLength="125" x="133" y="317.4712">[Liste vorhanden]</text><polygon fill="#111827" points="106,338.4854,96,342.4854,106,346.4854,102,342.4854" style="stroke:#111827;stroke-width:1.0;"/><line style="stroke:#111827;stroke-width:1.0;stroke-dasharray:2.0,2.0;" x1="100" x2="389.5" y1="342.4854" y2="342.4854"/><text fill="#000000" font-family="Arial" font-size="13" font-weight="bold" lengthAdjust="spacing" textLength="7" x="112" y="337.7305">3</text><text fill="#000000" font-family="Arial" font-size="13" lengthAdjust="spacing" textLength="101" x="123" y="337.7305">Collection-Bundle</text><line style="stroke:#111827;stroke-width:1.0;stroke-dasharray:2.0,2.0;" x1="56" x2="480" y1="351.4854" y2="351.4854"/><text fill="#000000" font-family="Arial" font-size="14" font-weight="bold" lengthAdjust="spacing" textLength="168" x="61" y="364.6172">[keine Liste vorhanden]</text><polygon fill="#111827" points="101,385.5327,91,389.5327,101,393.5327,97,389.5327" style="stroke:#111827;stroke-width:1.0;"/><line style="stroke:#111827;stroke-width:1.0;stroke-dasharray:2.0,2.0;" x1="95" x2="394.5" y1="389.5327" y2="389.5327"/><text fill="#000000" font-family="Arial" font-size="13" font-weight="bold" lengthAdjust="spacing" textLength="7" x="107" y="384.7778">4</text><text fill="#000000" font-family="Arial" font-size="13" lengthAdjust="spacing" textLength="206" x="118" y="384.7778">OperationOutcome (404 Not Found)</text><path d="M5,414.5327 L5,462.5327 A5,5 0 0 0 10,467.5327 L477,467.5327 A5,5 0 0 0 482,462.5327 L482,419.5327 L472,409.5327 L10,409.5327 A5,5 0 0 0 5,414.5327 " fill="url(#goa2z8b61ptun0)" style="stroke:#8B95A5;stroke-width:1.0;"/><path d="M472,409.5327 L472,417.0327 A2.5,2.5 0 0 0 474.5,419.5327 L482,419.5327 L472,409.5327 " fill="url(#goa2z8b61ptun0)" style="stroke:#8B95A5;stroke-width:1.0;"/><text fill="#111827" font-family="Arial" font-size="14" lengthAdjust="spacing" textLength="452" x="11" y="427.6646">Die Fachanwendung liefert die zuletzt (GKL: zuletzt?) gespeicherte Liste</text><text fill="#111827" font-family="Arial" font-size="14" lengthAdjust="spacing" textLength="422" x="11" y="443.7632">(unver&#228;ndert, inkl. aller referenzierten Ressourcen) oder ein leeres</text><text fill="#111827" font-family="Arial" font-size="14" lengthAdjust="spacing" textLength="239" x="11" y="459.8618">Ergebnis (OperationOutcome) zur&#252;ck.</text><!--SRC=[hLJRRXen47ttLup82qWXi1GQWaGhI4WYDKgY97rggiYiPy5YOrElDnUg_aq_es_viOxDpGjKQgKQ2S7CcJCpPposqgO85pAprNFwqkQrUeDSC9PDf9fomnzXg8r0SwnJRM2lxa_evV5aP7Ikn0AHjDmdG6HZBlIpL2D8U9fXu5c46OK6ef1KOCBpr9vgPI_v8qAfPoHFIxiHjtA643LtE_zKzldh54qgrIG030Qx09-Ly3zmg_o-VhdcGhZE6lMYlHzgrl8db5HfY_2T0VGtrSCwjf9wTKz4uWZVEqJ8r1uUjNXhPRqRotYYCCiW8jjDe6QT_YzhSoo1554KjHk7PBlTcCiFzb_q2IUFtt9KyRpLQswiZEMKAxjBdI9WwrBvKmHjZtVBlRmQ1KSmCu2UCVfvKnblB8hhJRiohXppNE_8T4QLJmizhfZdhgsXOzBmtGMHw_IDucJ-zTODzGkKxXMHd_GW0YZ1tb52M-jKuJ5jl7CyHC0pA7b8YQ4IjFKlGQm_M3sHVAHqXd3Aup5NpmJCgGv_YFUusJuyR1FlTAqse0jwEEtv1255BqZ4SwjL_ZX4mrYtwzyZX1GpLD3jaZksyecJoPVAvWLNFwouEt0sk8DQdoHDiVP5Ygyi25fLm5Q_2h7NvkrNulhWUG93fDHZAWplbI-ZfeWgjOkQdhIXnWKgwdBDHdI-fWwG-2bIOgsgyseOqbB01Ds2_1t55IqMTmnNkOqrlNxbPhq9bzhI5XDbXS84RYXIC2r9dRoC-RT6F-5YpljhzudS76GgCK5ZGP1dbgTePnRAPvykEij_7oimmcoACXuJRjaHA-UA4hpzT4-1tGTw5T83uAI40UCOKSsamokueHkjSnEZge0cD90mD6Y2P6nWHZXKCeFofWGLoaz3YYS7_igubjXl]--></g></svg>