<svg xmlns="http://www.w3.org/2000/svg" xmlns:xlink="http://www.w3.org/1999/xlink" version="1.1" data-diagram-type="SEQUENCE" style="width:865px;height:805px;background:#F5F5F5;" width="865px" height="805px" viewBox="0 0 865 805" zoomAndPan="magnify" preserveAspectRatio="none" contentStyleType="text/css"><?plantuml 1.2026.7beta8?><defs><linearGradient x1="50%" y1="0%" x2="50%" y2="100%" id="gsdrpo292mosl0"><stop stop-color="#E0E5F0" offset="0%"/><stop stop-color="#D1D9E6" offset="100%"/></linearGradient></defs><g font-family="sans-serif" lengthAdjust="spacing"><rect x="0" y="0" width="865" height="805" fill="#F5F5F5" style="stroke:none;"/><g class="title" data-source-line="1"><text x="244.205" y="27.995" fill="#000" font-size="14" textLength="374.972" font-weight="700" font-family="'Arial'">Bestehende Ressource in eine Liste aufnehmen</text></g><g><title>GDA 1</title><rect x="249.442" y="123.594" width="8" height="594.305" fill="#000" fill-opacity="0"/><line x1="252.942" y1="123.594" x2="252.942" y2="717.898" style="stroke:#181818;stroke-width:0.5;stroke-dasharray:5,5;"/></g><g><title></title><rect x="247.942" y="131.594" width="10" height="586.305" fill="#156082" fill-opacity="0.502" style="stroke:#181818;stroke-width:1;"/></g><g><title>e-Diagnose Fachanwendung</title><rect x="639.495" y="123.594" width="8" height="594.305" fill="#000" fill-opacity="0"/><line x1="642.995" y1="123.594" x2="642.995" y2="717.898" style="stroke:#181818;stroke-width:0.5;stroke-dasharray:5,5;"/></g><g><title></title><rect x="637.995" y="131.594" width="10" height="586.305" fill="#E97132" fill-opacity="0.502" style="stroke:#181818;stroke-width:1;"/></g><text x="227.66" y="120.292" fill="#000" font-size="14" textLength="44.563" font-family="'Arial'">GDA 1</text><ellipse cx="252.942" cy="55.797" rx="8" ry="8" fill="#156082" fill-opacity="0.502" style="stroke:#181818;stroke-width:0.5;"/><path d="M252.942,63.797 L252.942,90.797 M239.942,71.797 L265.942,71.797 M252.942,90.797 L239.942,105.797 M252.942,90.797 L265.942,105.797" style="stroke:#181818;stroke-width:0.5;" fill="none"/><rect x="536.642" y="92.297" width="212.707" height="30.297" fill="#E97132" fill-opacity="0.502" style="stroke:#555;stroke-width:0.5;" rx="5" ry="5"/><text x="543.642" y="112.292" fill="#000" font-size="14" textLength="198.707" font-family="'Arial'">e-Diagnose Fachanwendung</text><text x="227.66" y="730.894" fill="#000" font-size="14" textLength="44.563" font-family="'Arial'">GDA 1</text><ellipse cx="252.942" cy="742.695" rx="8" ry="8" fill="#156082" fill-opacity="0.502" style="stroke:#181818;stroke-width:0.5;"/><path d="M252.942,750.695 L252.942,777.695 M239.942,758.695 L265.942,758.695 M252.942,777.695 L239.942,792.695 M252.942,777.695 L265.942,792.695" style="stroke:#181818;stroke-width:0.5;" fill="none"/><rect x="536.642" y="717.898" width="212.707" height="30.297" fill="#E97132" fill-opacity="0.502" style="stroke:#555;stroke-width:0.5;" rx="5" ry="5"/><text x="543.642" y="737.894" fill="#000" font-size="14" textLength="198.707" font-family="'Arial'">e-Diagnose Fachanwendung</text><path d="M15,141.594 L15,238.594 A5,5 0 0 0 20,243.594 L485,243.594 A5,5 0 0 0 490,238.594 L490,146.594 L480,136.594 L20,136.594 A5,5 0 0 0 15,141.594" style="stroke:#8B95A5;stroke-width:1;" fill="url(#gsdrpo292mosl0)"/><path d="M480,136.594 L480,144.094 A2.5,2.5 0 0 0 482.5,146.594 L490,146.594 L480,136.594" style="stroke:#8B95A5;stroke-width:1;" fill="url(#gsdrpo292mosl0)"/><text x="21" y="154.589" fill="#111827" font-size="14" textLength="330.073" font-family="'Arial'">Vorbedingung: Im System des GDA 1 liegt eine</text><text x="21" y="170.886" fill="#111827" font-size="14" textLength="450.434" font-family="'Arial'">bestehende Ressource (Condition/Procedure/AllergyIntolerance)</text><text x="21" y="187.183" fill="#111827" font-size="14" textLength="337.798" font-family="'Arial'">vor, die in eine Liste aufgenommen werden soll.</text><text x="21" y="203.479" fill="#111827" font-size="14" font-family="'Arial'"> </text><text x="21" y="219.776" fill="#111827" font-size="14" textLength="342.932" font-family="'Arial'">Diese kann gerade erst erstellt worden sein oder</text><text x="21" y="236.073" fill="#111827" font-size="14" textLength="332.685" font-family="'Arial'">aus der Gesamtansicht abgerufen worden sein.</text><rect x="229.66" y="249.375" width="517.688" height="42.594" fill="none" style="stroke:#000;stroke-width:1.5;" rx="5" ry="5"/><path d="M234.66,249.375 L296.66,249.375 L296.66,257.375 L286.66,267.375 L229.66,267.375 L229.66,254.375 A5,5 0 0 1 234.66,249.375" style="stroke:#000;stroke-width:2;" fill="#EEE"/><text x="242.66" y="264.37" fill="#000" font-size="14" textLength="22.49" font-weight="700" font-family="'Arial'">ref</text><a target="_top" href="uc_ediag_01_lesen.html#$list-read" xlink:href="uc_ediag_01_lesen.html#$list-read" xlink:type="simple" xlink:actuate="onRequest" xlink:show="new" title="uc_ediag_01_lesen.html#$list-read" xlink:title="uc_ediag_01_lesen.html#$list-read"><text x="455.326" y="284.37" fill="#00E" font-size="14" textLength="66.356" font-family="'Arial'">$list-read</text></a><path d="M77.614,306.969 L77.614,354.969 A5,5 0 0 0 82.614,359.969 L422.614,359.969 A5,5 0 0 0 427.614,354.969 L427.614,311.969 L417.614,301.969 L82.614,301.969 A5,5 0 0 0 77.614,306.969" style="stroke:#8B95A5;stroke-width:1;" fill="url(#gsdrpo292mosl0)"/><path d="M417.614,301.969 L417.614,309.469 A2.5,2.5 0 0 0 420.114,311.969 L427.614,311.969 L417.614,301.969" style="stroke:#8B95A5;stroke-width:1;" fill="url(#gsdrpo292mosl0)"/><text x="83.614" y="319.964" fill="#111827" font-size="14" textLength="267.21" font-family="'Arial'">GDA erhält ein Search-Bundle von der</text><text x="83.614" y="336.261" fill="#111827" font-size="14" textLength="329.656" font-family="'Arial'">Fachanwendung und bearbeitet die enthaltene</text><text x="83.614" y="352.558" fill="#111827" font-size="14" textLength="106.408" font-family="'Arial'">List-Ressource.</text><line x1="257.942" y1="386.992" x2="299.942" y2="386.992" style="stroke:#111827;stroke-width:1;"/><line x1="299.942" y1="386.992" x2="299.942" y2="399.992" style="stroke:#111827;stroke-width:1;"/><line x1="258.942" y1="399.992" x2="299.942" y2="399.992" style="stroke:#111827;stroke-width:1;"/><polygon points="268.942,395.992,258.942,399.992,268.942,403.992,264.942,399.992" fill="#111827" style="stroke:#111827;stroke-width:1;stroke-linejoin:miter;stroke-miterlimit:10;"/><text x="264.942" y="381.926" fill="#000" font-size="13" font-weight="700" font-family="'Arial'">1</text><text x="277.987" y="381.926" fill="#000" font-size="13" textLength="222.701" font-family="'Arial'">Bestehende Ressource auswählen</text><line x1="257.942" y1="459.391" x2="299.942" y2="459.391" style="stroke:#111827;stroke-width:1;"/><line x1="299.942" y1="459.391" x2="299.942" y2="472.391" style="stroke:#111827;stroke-width:1;"/><line x1="258.942" y1="472.391" x2="299.942" y2="472.391" style="stroke:#111827;stroke-width:1;"/><polygon points="268.942,468.391,258.942,472.391,268.942,476.391,264.942,472.391" fill="#111827" style="stroke:#111827;stroke-width:1;stroke-linejoin:miter;stroke-miterlimit:10;"/><text x="264.942" y="439.192" fill="#000" font-size="13" font-weight="700" font-family="'Arial'">2</text><text x="277.987" y="424.059" fill="#000" font-size="13" textLength="137.82" font-family="'Arial'">List.entry hinzufügen</text><text x="277.987" y="439.192" fill="#000" font-size="13" textLength="144.619" font-family="'Arial'">- List.entry.flag = new</text><text x="277.987" y="454.325" fill="#000" font-size="13" textLength="358.008" font-family="'Arial'">- List.entry.item = Referenz auf bestehende Ressource</text><path d="M144.507,490.391 L144.507,538.391 A5,5 0 0 0 149.507,543.391 L355.507,543.391 A5,5 0 0 0 360.507,538.391 L360.507,495.391 L350.507,485.391 L149.507,485.391 A5,5 0 0 0 144.507,490.391" style="stroke:#8B95A5;stroke-width:1;" fill="url(#gsdrpo292mosl0)"/><path d="M350.507,485.391 L350.507,492.891 A2.5,2.5 0 0 0 353.007,495.391 L360.507,495.391 L350.507,485.391" style="stroke:#8B95A5;stroke-width:1;" fill="url(#gsdrpo292mosl0)"/><text x="150.507" y="503.386" fill="#111827" font-size="14" textLength="193.758" font-family="'Arial'">Die ausgewählte Ressource</text><text x="150.507" y="519.683" fill="#111827" font-size="14" textLength="195.87" font-family="'Arial'">wird als neuer Listeneintrag</text><text x="150.507" y="535.979" fill="#111827" font-size="14" textLength="106.531" font-family="'Arial'">aufgenommen.</text><rect x="229.66" y="549.281" width="517.688" height="42.594" fill="none" style="stroke:#000;stroke-width:1.5;" rx="5" ry="5"/><path d="M234.66,549.281 L296.66,549.281 L296.66,557.281 L286.66,567.281 L229.66,567.281 L229.66,554.281 A5,5 0 0 1 234.66,549.281" style="stroke:#000;stroke-width:2;" fill="#EEE"/><text x="242.66" y="564.276" fill="#000" font-size="14" textLength="22.49" font-weight="700" font-family="'Arial'">ref</text><a target="_top" href="uc_ediag_02_schreiben.html#$list-write" xlink:href="uc_ediag_02_schreiben.html#$list-write" xlink:type="simple" xlink:actuate="onRequest" xlink:show="new" title="uc_ediag_02_schreiben.html#$list-write" xlink:title="uc_ediag_02_schreiben.html#$list-write"><text x="454.947" y="584.276" fill="#00E" font-size="14" textLength="67.115" font-family="'Arial'">List-Write</text></a><line x1="647.995" y1="618.008" x2="689.995" y2="618.008" style="stroke:#111827;stroke-width:1;"/><line x1="689.995" y1="618.008" x2="689.995" y2="631.008" style="stroke:#111827;stroke-width:1;"/><line x1="648.995" y1="631.008" x2="689.995" y2="631.008" style="stroke:#111827;stroke-width:1;"/><polygon points="658.995,627.008,648.995,631.008,658.995,635.008,654.995,631.008" fill="#111827" style="stroke:#111827;stroke-width:1;stroke-linejoin:miter;stroke-miterlimit:10;"/><text x="654.995" y="612.942" fill="#000" font-size="13" font-weight="700" font-family="'Arial'">3</text><text x="668.041" y="612.942" fill="#000" font-size="13" textLength="179.34" font-family="'Arial'">meta.tag = relevant setzen</text><path d="M521.626,649.008 L521.626,697.008 A5,5 0 0 0 526.626,702.008 L758.626,702.008 A5,5 0 0 0 763.626,697.008 L763.626,654.008 L753.626,644.008 L526.626,644.008 A5,5 0 0 0 521.626,649.008" style="stroke:#8B95A5;stroke-width:1;" fill="url(#gsdrpo292mosl0)"/><path d="M753.626,644.008 L753.626,651.508 A2.5,2.5 0 0 0 756.126,654.008 L763.626,654.008 L753.626,644.008" style="stroke:#8B95A5;stroke-width:1;" fill="url(#gsdrpo292mosl0)"/><text x="527.626" y="662.003" fill="#111827" font-size="14" textLength="182.622" font-family="'Arial'">Die Ressource in der Liste</text><text x="527.626" y="678.3" fill="#111827" font-size="14" textLength="221.737" font-family="'Arial'">mit List.entry.flag = new wurde</text><text x="527.626" y="694.597" fill="#111827" font-size="14" textLength="202.576" font-family="'Arial'">als relevant gekennzeichnet.</text><?plantuml-src dLPHZ-8s47xFhvX27rhfu1BsO66bgmIxi5trTBjYj-t3TOLCCaai79jp7DAbwh-vdz6t_MCT9omOI5zg9EHuFi_CzytOYU5684mmDvYYZ13ccEUgq242bu1S8dpYP0HMn1BJ3ANdvIikrqop39PAHwYlbL0QsdurN2iBLubMXOnsYBXlVmuYJrcaIYuJY9d8qR7ijcc96WBNQOGnAuIPAMa-imoXDTQSYLOpuf5l4O8FpSR_IlldbpLgmUNA0KodJO1VIJ0xmRFq9-hF1nP5bbdFFrwVk9hrg-5AAXM9_PS7C3bL3ttintwd7GNH20SMuNeQBaTzrj-lFgKyN4cg9GIqDdVKzEdvBJVhnP4Y289XxvBM7a_gyhUROOvV2vHXdUK3quQ7VCsaQI9s33ZhXseSWyuhSsP-g-gHmP4ROAorAaz9LOl7kbHBJH7tXZhM1ItTKkRh8uvxpxNfh5uOzofspiv3-9uLzJjgHzi-r_UVxkUBsvln8W0QxQ0_y8UzeTy0w5M0qM3WNzwS0Hx6JtVJpq_MmsWmwNqu0zpSZMyNip41fgFBuCA6ECtY_XUeHxllJmUpMQz_0fZEv_Vp2Z2R3Qzz_uBwbuM6ADS4M0ujca7GSdbvwqEj06yuIsmU5eiT-oHLZZ1ZOSfaIHTH8PFMSSuKf31A5jaITHMGRnWTbJgc6sXlsaSvyLCTCRN1NS9KeT-KNg9j7mfx1NSPFBxGdMTlYnmgAY0u9gQ-3mc_RBelVxXMCkA6A_d-GQiGeqBZ-x4Gg9ENEsaKJHWTcn-jWutIxo3Y3PTiWb9bTCr2YTGm4d8bHDUZBJSSIQ4Lan8IyaIXKUUc-aCX39IgnfCxKDHgDWmhSh3JMynPPfZCUPWQO4joKCGsnc5FroCwrUtZUHfZHvzt1o6luCkN8boGLFJi1mj1ASbkQZBH_buGWuv65i5X-lpSfBPL57Nw-arKYi8ZCXscdGaT7NeNRPI4NVf7xG1a9k4PLOeRD9LwA4tAX469XBOITlRbSFdKFTBvgSxWglbrHrgLhzzIGM-uKxprtALO-WLIBhT5_FeFbUaFsN4itLYm13w2nFB4m6qdVQH8CMgKMrlanWPgaegARXDBi4hDk6Y0aki8w7wcc0NjgLf8ag16iwGg_hwP_aTnUuiyJ3NovN61IqrqQgb_jzFdP_2ylGkIp76NeM5TKwcYKU36dlmSpTP-GnoelctOiJtw_eZUQ94nuwPPRYWBwc9BcAJO1qfmXL9kaJfUeZa8y2y0?></g></svg>